<svg width="31" height="43" viewBox="0 0 31 43" fill="none" xmlns="http://www.w3.org/2000/svg">
<path d="M18.9375 4.8125H5.8125V23.1875H24.1875V17.0625" stroke="black" stroke-width="2" stroke-linecap="round" stroke-linejoin="round"/>
<path d="M11.0625 13.5625L15.4375 17.9375L25.9375 6.5625" stroke="black" stroke-width="2" stroke-linecap="round" stroke-linejoin="round"/>
<path d="M5.23633 35.6378C5.19845 35.3016 5.0422 35.0412 4.76758 34.8565C4.49296 34.6695 4.14731 34.576 3.73065 34.576C3.43235 34.576 3.1743 34.6233 2.9565 34.718C2.7387 34.8104 2.56942 34.9382 2.44869 35.1016C2.33031 35.2625 2.27113 35.446 2.27113 35.652C2.27113 35.8248 2.31138 35.974 2.39187 36.0994C2.47473 36.2249 2.58245 36.3303 2.71502 36.4155C2.84996 36.4983 2.99438 36.5682 3.14826 36.625C3.30214 36.6795 3.45011 36.7244 3.59215 36.7599L4.30238 36.9446C4.53439 37.0014 4.77231 37.0784 5.01616 37.1754C5.26 37.2725 5.48609 37.4003 5.69442 37.5589C5.90276 37.7176 6.07085 37.9141 6.19869 38.1484C6.32889 38.3828 6.394 38.6634 6.394 38.9901C6.394 39.402 6.28746 39.7678 6.0744 40.0874C5.8637 40.407 5.55711 40.6591 5.15465 40.8438C4.75456 41.0284 4.27042 41.1207 3.70224 41.1207C3.15773 41.1207 2.68661 41.0343 2.28888 40.8615C1.89116 40.6887 1.57984 40.4437 1.35494 40.1264C1.13003 39.8068 1.00574 39.428 0.982067 38.9901H2.08292C2.10423 39.2528 2.18945 39.4718 2.3386 39.647C2.49012 39.8198 2.68306 39.9489 2.91744 40.0341C3.15418 40.117 3.41341 40.1584 3.69513 40.1584C4.00527 40.1584 4.28107 40.1098 4.52255 40.0128C4.76639 39.9134 4.95816 39.776 5.09783 39.6009C5.23751 39.4233 5.30735 39.2161 5.30735 38.9794C5.30735 38.764 5.2458 38.5876 5.12269 38.4503C5.00195 38.313 4.83742 38.1993 4.62908 38.1094C4.42312 38.0194 4.18993 37.9401 3.92951 37.8714L3.07013 37.6371C2.48775 37.4785 2.0261 37.2453 1.68519 36.9375C1.34665 36.6297 1.17738 36.2225 1.17738 35.7159C1.17738 35.2969 1.29102 34.9311 1.51829 34.6186C1.74556 34.3061 2.05333 34.0634 2.44158 33.8906C2.82984 33.7154 3.26781 33.6278 3.7555 33.6278C4.24793 33.6278 4.68235 33.7143 5.05877 33.8871C5.43756 34.0599 5.73585 34.2978 5.95366 34.6009C6.17146 34.9015 6.2851 35.2472 6.29457 35.6378H5.23633ZM9.97088 41.1101C9.43348 41.1101 8.97064 40.9953 8.58239 40.7656C8.1965 40.5336 7.8982 40.2081 7.6875 39.7891C7.47917 39.3677 7.375 38.8741 7.375 38.3082C7.375 37.7495 7.47917 37.2571 7.6875 36.831C7.8982 36.4048 8.19176 36.0722 8.56818 35.8331C8.94697 35.594 9.38968 35.4744 9.89631 35.4744C10.2041 35.4744 10.5024 35.5253 10.7912 35.6271C11.08 35.7289 11.3393 35.8887 11.5689 36.1065C11.7985 36.3243 11.9796 36.6072 12.1122 36.9553C12.2448 37.3009 12.3111 37.7211 12.3111 38.2159V38.5923H7.97514V37.7969H11.2706C11.2706 37.5175 11.2138 37.2701 11.1001 37.0547C10.9865 36.8369 10.8267 36.6652 10.6207 36.5398C10.4171 36.4143 10.178 36.3516 9.90341 36.3516C9.60511 36.3516 9.3447 36.425 9.12216 36.5717C8.90199 36.7161 8.73153 36.9055 8.6108 37.1399C8.49242 37.3719 8.43324 37.6241 8.43324 37.8963V38.5178C8.43324 38.8823 8.49716 39.1925 8.625 39.4482C8.75521 39.7038 8.93632 39.8991 9.16832 40.0341C9.40033 40.1667 9.6714 40.233 9.98153 40.233C10.1828 40.233 10.3662 40.2045 10.532 40.1477C10.6977 40.0885 10.8409 40.0009 10.9616 39.8849C11.0824 39.7689 11.1747 39.6257 11.2386 39.4553L12.2436 39.6364C12.1631 39.9323 12.0187 40.1915 11.8104 40.4141C11.6044 40.6342 11.3452 40.8059 11.0327 40.929C10.7225 41.0497 10.3686 41.1101 9.97088 41.1101ZM14.551 33.7273V41H13.4892V33.7273H14.551ZM18.3303 41.1101C17.7929 41.1101 17.33 40.9953 16.9418 40.7656C16.5559 40.5336 16.2576 40.2081 16.0469 39.7891C15.8385 39.3677 15.7344 38.8741 15.7344 38.3082C15.7344 37.7495 15.8385 37.2571 16.0469 36.831C16.2576 36.4048 16.5511 36.0722 16.9276 35.8331C17.3063 35.594 17.7491 35.4744 18.2557 35.4744C18.5634 35.4744 18.8617 35.5253 19.1506 35.6271C19.4394 35.7289 19.6986 35.8887 19.9283 36.1065C20.1579 36.3243 20.339 36.6072 20.4716 36.9553C20.6042 37.3009 20.6705 37.7211 20.6705 38.2159V38.5923H16.3345V37.7969H19.63C19.63 37.5175 19.5732 37.2701 19.4595 37.0547C19.3459 36.8369 19.1861 36.6652 18.9801 36.5398C18.7765 36.4143 18.5374 36.3516 18.2628 36.3516C17.9645 36.3516 17.7041 36.425 17.4815 36.5717C17.2614 36.7161 17.0909 36.9055 16.9702 37.1399C16.8518 37.3719 16.7926 37.6241 16.7926 37.8963V38.5178C16.7926 38.8823 16.8565 39.1925 16.9844 39.4482C17.1146 39.7038 17.2957 39.8991 17.5277 40.0341C17.7597 40.1667 18.0308 40.233 18.3409 40.233C18.5421 40.233 18.7256 40.2045 18.8913 40.1477C19.0571 40.0885 19.2003 40.0009 19.321 39.8849C19.4418 39.7689 19.5341 39.6257 19.598 39.4553L20.603 39.6364C20.5225 39.9323 20.3781 40.1915 20.1697 40.4141C19.9638 40.6342 19.7045 40.8059 19.392 40.929C19.0819 41.0497 18.728 41.1101 18.3303 41.1101ZM24.1461 41.1101C23.6182 41.1101 23.1636 40.9905 22.7825 40.7514C22.4037 40.5099 22.1125 40.1773 21.9089 39.7536C21.7053 39.3298 21.6035 38.8445 21.6035 38.2976C21.6035 37.7436 21.7077 37.2547 21.916 36.831C22.1243 36.4048 22.4179 36.0722 22.7967 35.8331C23.1755 35.594 23.6217 35.4744 24.1355 35.4744C24.5498 35.4744 24.9191 35.5514 25.2434 35.7053C25.5678 35.8568 25.8294 36.0698 26.0282 36.3445C26.2295 36.6191 26.349 36.9399 26.3869 37.3068H25.3535C25.2967 37.0511 25.1665 36.831 24.9629 36.6463C24.7617 36.4616 24.4918 36.3693 24.1532 36.3693C23.8573 36.3693 23.5981 36.4474 23.3755 36.6037C23.1554 36.7576 22.9837 36.9777 22.8606 37.2642C22.7375 37.5483 22.676 37.8845 22.676 38.2727C22.676 38.6705 22.7363 39.0137 22.8571 39.3026C22.9778 39.5914 23.1483 39.8151 23.3684 39.9737C23.591 40.1323 23.8526 40.2116 24.1532 40.2116C24.3545 40.2116 24.5368 40.175 24.7001 40.1016C24.8658 40.0258 25.0043 39.9181 25.1156 39.7784C25.2292 39.6387 25.3085 39.4706 25.3535 39.2741H26.3869C26.349 39.6269 26.2342 39.9418 26.0424 40.2188C25.8507 40.4957 25.5938 40.7135 25.2718 40.8722C24.9522 41.0308 24.577 41.1101 24.1461 41.1101ZM30.0685 35.5455V36.3977H27.0891V35.5455H30.0685ZM27.8881 34.2386H28.9499V39.3984C28.9499 39.6044 28.9807 39.7595 29.0423 39.8636C29.1038 39.9654 29.1831 40.0353 29.2802 40.0732C29.3796 40.1087 29.4873 40.1264 29.6033 40.1264C29.6886 40.1264 29.7631 40.1205 29.8271 40.1087C29.891 40.0968 29.9407 40.0874 29.9762 40.0803L30.168 40.9574C30.1064 40.9811 30.0188 41.0047 29.9052 41.0284C29.7915 41.0545 29.6495 41.0687 29.479 41.071C29.1997 41.0758 28.9393 41.026 28.6978 40.9219C28.4563 40.8177 28.261 40.6567 28.1119 40.4389C27.9627 40.2211 27.8881 39.9477 27.8881 39.6186V34.2386Z" fill="black"/>
</svg>
