<svg width="60" height="43" viewBox="0 0 60 43" fill="none" xmlns="http://www.w3.org/2000/svg">
<path d="M1.27264 41V33.7273H5.78258V34.6719H2.36994V36.8878H5.45943V37.8288H2.36994V41H1.27264ZM8.61461 41.1207C8.26897 41.1207 7.95647 41.0568 7.67711 40.929C7.39776 40.7988 7.1764 40.6106 7.01305 40.3643C6.85207 40.1181 6.77157 39.8163 6.77157 39.4588C6.77157 39.151 6.83076 38.8977 6.94913 38.6989C7.0675 38.5 7.2273 38.3426 7.42853 38.2266C7.62976 38.1106 7.85467 38.023 8.10325 37.9638C8.35183 37.9046 8.60514 37.8596 8.86319 37.8288C9.1899 37.791 9.45505 37.7602 9.65865 37.7365C9.86225 37.7105 10.0102 37.669 10.1025 37.6122C10.1949 37.5554 10.241 37.4631 10.241 37.3352V37.3104C10.241 37.0002 10.1534 36.7599 9.97825 36.5895C9.80543 36.419 9.54738 36.3338 9.2041 36.3338C8.84662 36.3338 8.5649 36.4131 8.35893 36.5717C8.15533 36.728 8.01447 36.902 7.93635 37.0938L6.93848 36.8665C7.05685 36.535 7.22967 36.2675 7.45694 36.0639C7.68658 35.858 7.95055 35.7088 8.24885 35.6165C8.54714 35.5218 8.86083 35.4744 9.1899 35.4744C9.4077 35.4744 9.63852 35.5005 9.88237 35.5526C10.1286 35.6023 10.3582 35.6946 10.5713 35.8295C10.7867 35.9645 10.9631 36.1574 11.1004 36.4084C11.2377 36.657 11.3064 36.9801 11.3064 37.3778V41H10.2694V40.2543H10.2268C10.1582 40.3916 10.0552 40.5265 9.91788 40.6591C9.78057 40.7917 9.6042 40.9018 9.38876 40.9893C9.17333 41.0769 8.91528 41.1207 8.61461 41.1207ZM8.84544 40.2685C9.139 40.2685 9.38994 40.2105 9.59828 40.0945C9.80898 39.9785 9.96878 39.8269 10.0777 39.6399C10.189 39.4505 10.2446 39.2481 10.2446 39.0327V38.3295C10.2067 38.3674 10.1333 38.4029 10.0244 38.4361C9.91788 38.4669 9.79596 38.4941 9.65865 38.5178C9.52134 38.5391 9.38758 38.5592 9.25737 38.5781C9.12716 38.5947 9.01826 38.6089 8.93066 38.6207C8.7247 38.6468 8.53649 38.6906 8.36603 38.7521C8.19795 38.8137 8.063 38.9025 7.9612 39.0185C7.86177 39.1321 7.81206 39.2836 7.81206 39.473C7.81206 39.7358 7.90912 39.9347 8.10325 40.0696C8.29738 40.2022 8.54477 40.2685 8.84544 40.2685ZM15.0182 41.1101C14.4903 41.1101 14.0357 40.9905 13.6546 40.7514C13.2758 40.5099 12.9846 40.1773 12.781 39.7536C12.5774 39.3298 12.4756 38.8445 12.4756 38.2976C12.4756 37.7436 12.5798 37.2547 12.7881 36.831C12.9964 36.4048 13.29 36.0722 13.6688 35.8331C14.0476 35.594 14.4938 35.4744 15.0075 35.4744C15.4218 35.4744 15.7912 35.5514 16.1155 35.7053C16.4398 35.8568 16.7014 36.0698 16.9003 36.3445C17.1015 36.6191 17.2211 36.9399 17.259 37.3068H16.2256C16.1688 37.0511 16.0386 36.831 15.835 36.6463C15.6337 36.4616 15.3638 36.3693 15.0253 36.3693C14.7294 36.3693 14.4701 36.4474 14.2476 36.6037C14.0274 36.7576 13.8558 36.9777 13.7327 37.2642C13.6096 37.5483 13.548 37.8845 13.548 38.2727C13.548 38.6705 13.6084 39.0137 13.7291 39.3026C13.8499 39.5914 14.0203 39.8151 14.2405 39.9737C14.463 40.1323 14.7246 40.2116 15.0253 40.2116C15.2265 40.2116 15.4088 40.175 15.5722 40.1016C15.7379 40.0258 15.8764 39.9181 15.9877 39.7784C16.1013 39.6387 16.1806 39.4706 16.2256 39.2741H17.259C17.2211 39.6269 17.1063 39.9418 16.9145 40.2188C16.7227 40.4957 16.4659 40.7135 16.1439 40.8722C15.8243 41.0308 15.4491 41.1101 15.0182 41.1101ZM20.7453 41.1101C20.2079 41.1101 19.7451 40.9953 19.3568 40.7656C18.9709 40.5336 18.6726 40.2081 18.4619 39.7891C18.2536 39.3677 18.1494 38.8741 18.1494 38.3082C18.1494 37.7495 18.2536 37.2571 18.4619 36.831C18.6726 36.4048 18.9662 36.0722 19.3426 35.8331C19.7214 35.594 20.1641 35.4744 20.6707 35.4744C20.9785 35.4744 21.2768 35.5253 21.5656 35.6271C21.8544 35.7289 22.1137 35.8887 22.3433 36.1065C22.5729 36.3243 22.7541 36.6072 22.8866 36.9553C23.0192 37.3009 23.0855 37.7211 23.0855 38.2159V38.5923H18.7496V37.7969H22.045C22.045 37.5175 21.9882 37.2701 21.8746 37.0547C21.7609 36.8369 21.6011 36.6652 21.3952 36.5398C21.1916 36.4143 20.9524 36.3516 20.6778 36.3516C20.3795 36.3516 20.1191 36.425 19.8966 36.5717C19.6764 36.7161 19.5059 36.9055 19.3852 37.1399C19.2668 37.3719 19.2077 37.6241 19.2077 37.8963V38.5178C19.2077 38.8823 19.2716 39.1925 19.3994 39.4482C19.5296 39.7038 19.7107 39.8991 19.9427 40.0341C20.1747 40.1667 20.4458 40.233 20.7559 40.233C20.9572 40.233 21.1407 40.2045 21.3064 40.1477C21.4721 40.0885 21.6153 40.0009 21.7361 39.8849C21.8568 39.7689 21.9491 39.6257 22.0131 39.4553L23.018 39.6364C22.9375 39.9323 22.7931 40.1915 22.5848 40.4141C22.3788 40.6342 22.1196 40.8059 21.8071 40.929C21.497 41.0497 21.143 41.1101 20.7453 41.1101ZM30.9619 35.6378C30.924 35.3016 30.7678 35.0412 30.4932 34.8565C30.2185 34.6695 29.8729 34.576 29.4562 34.576C29.1579 34.576 28.8999 34.6233 28.6821 34.718C28.4643 34.8104 28.295 34.9382 28.1743 35.1016C28.0559 35.2625 27.9967 35.446 27.9967 35.652C27.9967 35.8248 28.037 35.974 28.1175 36.0994C28.2003 36.2249 28.308 36.3303 28.4406 36.4155C28.5756 36.4983 28.72 36.5682 28.8738 36.625C29.0277 36.6795 29.1757 36.7244 29.3177 36.7599L30.028 36.9446C30.26 37.0014 30.4979 37.0784 30.7417 37.1754C30.9856 37.2725 31.2117 37.4003 31.42 37.5589C31.6283 37.7176 31.7964 37.9141 31.9243 38.1484C32.0545 38.3828 32.1196 38.6634 32.1196 38.9901C32.1196 39.402 32.0131 39.7678 31.8 40.0874C31.5893 40.407 31.2827 40.6591 30.8802 40.8438C30.4801 41.0284 29.996 41.1207 29.4278 41.1207C28.8833 41.1207 28.4122 41.0343 28.0145 40.8615C27.6167 40.6887 27.3054 40.4437 27.0805 40.1264C26.8556 39.8068 26.7313 39.428 26.7077 38.9901H27.8085C27.8298 39.2528 27.915 39.4718 28.0642 39.647C28.2157 39.8198 28.4086 39.9489 28.643 40.0341C28.8798 40.117 29.139 40.1584 29.4207 40.1584C29.7309 40.1584 30.0067 40.1098 30.2481 40.0128C30.492 39.9134 30.6837 39.776 30.8234 39.6009C30.9631 39.4233 31.0329 39.2161 31.0329 38.9794C31.0329 38.764 30.9714 38.5876 30.8483 38.4503C30.7275 38.313 30.563 38.1993 30.3547 38.1094C30.1487 38.0194 29.9155 37.9401 29.6551 37.8714L28.7957 37.6371C28.2133 37.4785 27.7517 37.2453 27.4108 36.9375C27.0722 36.6297 26.903 36.2225 26.903 35.7159C26.903 35.2969 27.0166 34.9311 27.2439 34.6186C27.4711 34.3061 27.7789 34.0634 28.1672 33.8906C28.5554 33.7154 28.9934 33.6278 29.4811 33.6278C29.9735 33.6278 30.4079 33.7143 30.7844 33.8871C31.1631 34.0599 31.4614 34.2978 31.6792 34.6009C31.897 34.9015 32.0107 35.2472 32.0202 35.6378H30.9619ZM35.6965 41.1101C35.1591 41.1101 34.6962 40.9953 34.308 40.7656C33.9221 40.5336 33.6238 40.2081 33.4131 39.7891C33.2048 39.3677 33.1006 38.8741 33.1006 38.3082C33.1006 37.7495 33.2048 37.2571 33.4131 36.831C33.6238 36.4048 33.9173 36.0722 34.2938 35.8331C34.6726 35.594 35.1153 35.4744 35.6219 35.4744C35.9297 35.4744 36.228 35.5253 36.5168 35.6271C36.8056 35.7289 37.0648 35.8887 37.2945 36.1065C37.5241 36.3243 37.7052 36.6072 37.8378 36.9553C37.9704 37.3009 38.0367 37.7211 38.0367 38.2159V38.5923H33.7007V37.7969H36.9962C36.9962 37.5175 36.9394 37.2701 36.8257 37.0547C36.7121 36.8369 36.5523 36.6652 36.3463 36.5398C36.1427 36.4143 35.9036 36.3516 35.629 36.3516C35.3307 36.3516 35.0703 36.425 34.8477 36.5717C34.6276 36.7161 34.4571 36.9055 34.3364 37.1399C34.218 37.3719 34.1588 37.6241 34.1588 37.8963V38.5178C34.1588 38.8823 34.2227 39.1925 34.3506 39.4482C34.4808 39.7038 34.6619 39.8991 34.8939 40.0341C35.1259 40.1667 35.397 40.233 35.7071 40.233C35.9084 40.233 36.0918 40.2045 36.2575 40.1477C36.4233 40.0885 36.5665 40.0009 36.6872 39.8849C36.808 39.7689 36.9003 39.6257 36.9642 39.4553L37.9692 39.6364C37.8887 39.9323 37.7443 40.1915 37.536 40.4141C37.33 40.6342 37.0708 40.8059 36.7583 40.929C36.4481 41.0497 36.0942 41.1101 35.6965 41.1101ZM40.8021 41.1207C40.4565 41.1207 40.144 41.0568 39.8646 40.929C39.5853 40.7988 39.3639 40.6106 39.2006 40.3643C39.0396 40.1181 38.9591 39.8163 38.9591 39.4588C38.9591 39.151 39.0183 38.8977 39.1366 38.6989C39.255 38.5 39.4148 38.3426 39.616 38.2266C39.8173 38.1106 40.0422 38.023 40.2907 37.9638C40.5393 37.9046 40.7926 37.8596 41.0507 37.8288C41.3774 37.791 41.6425 37.7602 41.8461 37.7365C42.0497 37.7105 42.1977 37.669 42.29 37.6122C42.3824 37.5554 42.4285 37.4631 42.4285 37.3352V37.3104C42.4285 37.0002 42.3409 36.7599 42.1657 36.5895C41.9929 36.419 41.7349 36.3338 41.3916 36.3338C41.0341 36.3338 40.7524 36.4131 40.5464 36.5717C40.3428 36.728 40.202 36.902 40.1238 37.0938L39.126 36.8665C39.2443 36.535 39.4172 36.2675 39.6444 36.0639C39.8741 35.858 40.1381 35.7088 40.4363 35.6165C40.7346 35.5218 41.0483 35.4744 41.3774 35.4744C41.5952 35.4744 41.826 35.5005 42.0699 35.5526C42.3161 35.6023 42.5457 35.6946 42.7588 35.8295C42.9742 35.9645 43.1506 36.1574 43.2879 36.4084C43.4252 36.657 43.4939 36.9801 43.4939 37.3778V41H42.4569V40.2543H42.4143C42.3457 40.3916 42.2427 40.5265 42.1054 40.6591C41.9681 40.7917 41.7917 40.9018 41.5763 40.9893C41.3608 41.0769 41.1028 41.1207 40.8021 41.1207ZM41.0329 40.2685C41.3265 40.2685 41.5774 40.2105 41.7858 40.0945C41.9965 39.9785 42.1563 39.8269 42.2652 39.6399C42.3765 39.4505 42.4321 39.2481 42.4321 39.0327V38.3295C42.3942 38.3674 42.3208 38.4029 42.2119 38.4361C42.1054 38.4669 41.9835 38.4941 41.8461 38.5178C41.7088 38.5391 41.5751 38.5592 41.4449 38.5781C41.3147 38.5947 41.2058 38.6089 41.1182 38.6207C40.9122 38.6468 40.724 38.6906 40.5535 38.7521C40.3854 38.8137 40.2505 38.9025 40.1487 39.0185C40.0493 39.1321 39.9996 39.2836 39.9996 39.473C39.9996 39.7358 40.0966 39.9347 40.2907 40.0696C40.4849 40.2022 40.7323 40.2685 41.0329 40.2685ZM44.9081 41V35.5455H45.9344V36.4119H45.9912C46.0906 36.1184 46.2658 35.8875 46.5168 35.7195C46.7701 35.549 47.0566 35.4638 47.3762 35.4638C47.4424 35.4638 47.5206 35.4661 47.6105 35.4709C47.7029 35.4756 47.7751 35.4815 47.8271 35.4886V36.5043C47.7845 36.4924 47.7088 36.4794 47.5999 36.4652C47.491 36.4486 47.3821 36.4403 47.2732 36.4403C47.0222 36.4403 46.7985 36.4936 46.602 36.6001C46.4079 36.7043 46.254 36.8499 46.1404 37.0369C46.0267 37.2216 45.9699 37.4323 45.9699 37.669V41H44.9081ZM50.8483 41.1101C50.3203 41.1101 49.8658 40.9905 49.4846 40.7514C49.1059 40.5099 48.8147 40.1773 48.6111 39.7536C48.4075 39.3298 48.3057 38.8445 48.3057 38.2976C48.3057 37.7436 48.4098 37.2547 48.6182 36.831C48.8265 36.4048 49.1201 36.0722 49.4988 35.8331C49.8776 35.594 50.3239 35.4744 50.8376 35.4744C51.2519 35.4744 51.6212 35.5514 51.9456 35.7053C52.2699 35.8568 52.5315 36.0698 52.7304 36.3445C52.9316 36.6191 53.0512 36.9399 53.089 37.3068H52.0557C51.9988 37.0511 51.8686 36.831 51.665 36.6463C51.4638 36.4616 51.1939 36.3693 50.8554 36.3693C50.5595 36.3693 50.3002 36.4474 50.0777 36.6037C49.8575 36.7576 49.6859 36.9777 49.5628 37.2642C49.4397 37.5483 49.3781 37.8845 49.3781 38.2727C49.3781 38.6705 49.4385 39.0137 49.5592 39.3026C49.68 39.5914 49.8504 39.8151 50.0706 39.9737C50.2931 40.1323 50.5547 40.2116 50.8554 40.2116C51.0566 40.2116 51.2389 40.175 51.4023 40.1016C51.568 40.0258 51.7065 39.9181 51.8177 39.7784C51.9314 39.6387 52.0107 39.4706 52.0557 39.2741H53.089C53.0512 39.6269 52.9363 39.9418 52.7446 40.2188C52.5528 40.4957 52.296 40.7135 51.974 40.8722C51.6544 41.0308 51.2791 41.1101 50.8483 41.1101ZM55.2863 37.7614V41H54.2245V33.7273H55.2721V36.4332H55.3396C55.4674 36.1397 55.6627 35.9065 55.9255 35.7337C56.1883 35.5608 56.5316 35.4744 56.9553 35.4744C57.3294 35.4744 57.6561 35.5514 57.9355 35.7053C58.2172 35.8591 58.435 36.0888 58.5889 36.3942C58.7451 36.6972 58.8232 37.076 58.8232 37.5305V41H57.7615V37.6584C57.7615 37.2583 57.6585 36.9482 57.4525 36.728C57.2465 36.5054 56.9601 36.3942 56.5931 36.3942C56.3422 36.3942 56.1173 36.4474 55.9184 36.554C55.7219 36.6605 55.5669 36.8168 55.4532 37.0227C55.3419 37.2263 55.2863 37.4725 55.2863 37.7614Z" fill="black"/>
<path d="M24.1667 3.5H21.8333C21.2145 3.5 20.621 3.74583 20.1834 4.18342C19.7458 4.621 19.5 5.21449 19.5 5.83333V8.16667M35.8333 3.5H38.1667C38.7855 3.5 39.379 3.74583 39.8166 4.18342C40.2542 4.621 40.5 5.21449 40.5 5.83333V8.16667M34.6667 9.33333V11.6667M25.3333 9.33333V11.6667M26.5 18.6667C26.5 18.6667 27.6667 19.8333 30 19.8333C32.3333 19.8333 33.5 18.6667 33.5 18.6667M30 9.33333V15.1667H28.8333M24.1667 24.5H21.8333C21.2145 24.5 20.621 24.2542 20.1834 23.8166C19.7458 23.379 19.5 22.7855 19.5 22.1667V19.8333M35.8333 24.5H38.1667C38.7855 24.5 39.379 24.2542 39.8166 23.8166C40.2542 23.379 40.5 22.7855 40.5 22.1667V19.8333" stroke="black" stroke-width="2" stroke-linecap="round" stroke-linejoin="round"/>
</svg>
