<svg width="48" height="43" viewBox="0 0 48 43" fill="none" xmlns="http://www.w3.org/2000/svg">
<mask id="path-1-inside-1_1208_3154" fill="white">
<path d="M10.875 17.325C11.1071 17.325 11.3296 17.4171 11.4937 17.5812C11.6578 17.7453 11.75 17.9679 11.75 18.2V22.575C11.75 23.0391 11.9344 23.4842 12.2626 23.8124C12.5908 24.1406 13.0359 24.325 13.5 24.325H34.5C34.9641 24.325 35.4092 24.1406 35.7374 23.8124C36.0656 23.4842 36.25 23.0391 36.25 22.575V18.2C36.25 17.9679 36.3422 17.7453 36.5063 17.5812C36.6704 17.4171 36.8929 17.325 37.125 17.325C37.3571 17.325 37.5796 17.4171 37.7437 17.5812C37.9078 17.7453 38 17.9679 38 18.2V22.575C38 23.5032 37.6313 24.3934 36.9749 25.0498C36.3185 25.7062 35.4283 26.075 34.5 26.075H13.5C12.5717 26.075 11.6815 25.7062 11.0251 25.0498C10.3687 24.3934 10 23.5032 10 22.575V18.2C10 17.9679 10.0922 17.7453 10.2563 17.5812C10.4204 17.4171 10.6429 17.325 10.875 17.325Z"/>
</mask>
<path d="M10.875 17.325C11.1071 17.325 11.3296 17.4171 11.4937 17.5812C11.6578 17.7453 11.75 17.9679 11.75 18.2V22.575C11.75 23.0391 11.9344 23.4842 12.2626 23.8124C12.5908 24.1406 13.0359 24.325 13.5 24.325H34.5C34.9641 24.325 35.4092 24.1406 35.7374 23.8124C36.0656 23.4842 36.25 23.0391 36.25 22.575V18.2C36.25 17.9679 36.3422 17.7453 36.5063 17.5812C36.6704 17.4171 36.8929 17.325 37.125 17.325C37.3571 17.325 37.5796 17.4171 37.7437 17.5812C37.9078 17.7453 38 17.9679 38 18.2V22.575C38 23.5032 37.6313 24.3934 36.9749 25.0498C36.3185 25.7062 35.4283 26.075 34.5 26.075H13.5C12.5717 26.075 11.6815 25.7062 11.0251 25.0498C10.3687 24.3934 10 23.5032 10 22.575V18.2C10 17.9679 10.0922 17.7453 10.2563 17.5812C10.4204 17.4171 10.6429 17.325 10.875 17.325Z" fill="black"/>
<path d="M11.75 18.2H13.75H11.75ZM11.75 22.575H9.75H11.75ZM10 22.575H8H10ZM10 18.2H8H10ZM10.875 19.325C10.5766 19.325 10.2905 19.2064 10.0795 18.9954L12.9079 16.167C12.3688 15.6279 11.6375 15.325 10.875 15.325V19.325ZM10.0795 18.9954C9.86853 18.7845 9.75 18.4983 9.75 18.2H13.75C13.75 17.4375 13.4471 16.7062 12.9079 16.167L10.0795 18.9954ZM9.75 18.2V22.575H13.75V18.2H9.75ZM9.75 22.575C9.75 23.5695 10.1451 24.5233 10.8483 25.2266L13.6768 22.3982C13.7237 22.4451 13.75 22.5086 13.75 22.575H9.75ZM10.8483 25.2266C11.5516 25.9299 12.5054 26.325 13.5 26.325V22.325C13.5663 22.325 13.6299 22.3513 13.6768 22.3982L10.8483 25.2266ZM13.5 26.325H34.5V22.325H13.5V26.325ZM34.5 26.325C35.4946 26.325 36.4484 25.9299 37.1516 25.2266L34.3232 22.3982C34.3701 22.3513 34.4337 22.325 34.5 22.325V26.325ZM37.1516 25.2266C37.8549 24.5233 38.25 23.5695 38.25 22.575H34.25C34.25 22.5086 34.2763 22.4451 34.3232 22.3982L37.1516 25.2266ZM38.25 22.575V18.2H34.25V22.575H38.25ZM38.25 18.2C38.25 18.4983 38.1315 18.7845 37.9205 18.9954L35.0921 16.167C34.5529 16.7062 34.25 17.4375 34.25 18.2H38.25ZM37.9205 18.9954C37.7095 19.2064 37.4234 19.325 37.125 19.325V15.325C36.3625 15.325 35.6312 15.6279 35.0921 16.167L37.9205 18.9954ZM37.125 19.325C36.8266 19.325 36.5405 19.2064 36.3295 18.9954L39.1579 16.167C38.6188 15.6279 37.8875 15.325 37.125 15.325V19.325ZM36.3295 18.9954C36.1185 18.7845 36 18.4983 36 18.2H40C40 17.4375 39.6971 16.7062 39.1579 16.167L36.3295 18.9954ZM36 18.2V22.575H40V18.2H36ZM36 22.575C36 22.9728 35.842 23.3543 35.5607 23.6356L38.3891 26.464C39.4205 25.4326 40 24.0336 40 22.575H36ZM35.5607 23.6356C35.2794 23.9169 34.8978 24.075 34.5 24.075V28.075C35.9587 28.075 37.3576 27.4955 38.3891 26.464L35.5607 23.6356ZM34.5 24.075H13.5V28.075H34.5V24.075ZM13.5 24.075C13.1022 24.075 12.7206 23.9169 12.4393 23.6356L9.61091 26.464C10.6424 27.4955 12.0413 28.075 13.5 28.075V24.075ZM12.4393 23.6356C12.158 23.3543 12 22.9728 12 22.575H8C8 24.0336 8.57946 25.4326 9.61091 26.464L12.4393 23.6356ZM12 22.575V18.2H8V22.575H12ZM12 18.2C12 18.4983 11.8815 18.7845 11.6705 18.9954L8.84207 16.167C8.3029 16.7062 8 17.4375 8 18.2H12ZM11.6705 18.9954C11.4595 19.2064 11.1734 19.325 10.875 19.325V15.325C10.1125 15.325 9.38123 15.6279 8.84207 16.167L11.6705 18.9954Z" fill="black" mask="url(#path-1-inside-1_1208_3154)"/>
<mask id="path-3-inside-2_1208_3154" fill="white">
<path d="M23.3806 20.7445C23.4619 20.826 23.5585 20.8906 23.6648 20.9347C23.7711 20.9789 23.885 21.0016 24.0001 21.0016C24.1152 21.0016 24.2292 20.9789 24.3355 20.9347C24.4418 20.8906 24.5383 20.826 24.6196 20.7445L29.8696 15.4945C30.0339 15.3302 30.1262 15.1074 30.1262 14.875C30.1262 14.6426 30.0339 14.4198 29.8696 14.2555C29.7053 14.0912 29.4825 13.9989 29.2501 13.9989C29.0178 13.9989 28.7949 14.0912 28.6306 14.2555L24.8751 18.0128V2.625C24.8751 2.39294 24.7829 2.17038 24.6188 2.00628C24.4548 1.84219 24.2322 1.75 24.0001 1.75C23.7681 1.75 23.5455 1.84219 23.3814 2.00628C23.2173 2.17038 23.1251 2.39294 23.1251 2.625V18.0128L19.3696 14.2555C19.2053 14.0912 18.9825 13.9989 18.7501 13.9989C18.5178 13.9989 18.2949 14.0912 18.1306 14.2555C17.9663 14.4198 17.874 14.6426 17.874 14.875C17.874 15.1074 17.9663 15.3302 18.1306 15.4945L23.3806 20.7445Z"/>
</mask>
<path d="M23.3806 20.7445C23.4619 20.826 23.5585 20.8906 23.6648 20.9347C23.7711 20.9789 23.885 21.0016 24.0001 21.0016C24.1152 21.0016 24.2292 20.9789 24.3355 20.9347C24.4418 20.8906 24.5383 20.826 24.6196 20.7445L29.8696 15.4945C30.0339 15.3302 30.1262 15.1074 30.1262 14.875C30.1262 14.6426 30.0339 14.4198 29.8696 14.2555C29.7053 14.0912 29.4825 13.9989 29.2501 13.9989C29.0178 13.9989 28.7949 14.0912 28.6306 14.2555L24.8751 18.0128V2.625C24.8751 2.39294 24.7829 2.17038 24.6188 2.00628C24.4548 1.84219 24.2322 1.75 24.0001 1.75C23.7681 1.75 23.5455 1.84219 23.3814 2.00628C23.2173 2.17038 23.1251 2.39294 23.1251 2.625V18.0128L19.3696 14.2555C19.2053 14.0912 18.9825 13.9989 18.7501 13.9989C18.5178 13.9989 18.2949 14.0912 18.1306 14.2555C17.9663 14.4198 17.874 14.6426 17.874 14.875C17.874 15.1074 17.9663 15.3302 18.1306 15.4945L23.3806 20.7445Z" fill="black"/>
<path d="M24.6196 20.7445L23.2054 19.3303L23.2036 19.3321L24.6196 20.7445ZM30.1262 14.875H32.1262H30.1262ZM28.6306 14.2555L27.2164 12.8413L27.2161 12.8416L28.6306 14.2555ZM24.8751 18.0128H22.8751V22.8428L26.2897 19.4266L24.8751 18.0128ZM24.0001 1.75V-0.25V1.75ZM23.1251 18.0128L21.7106 19.4266L25.1251 22.8428V18.0128H23.1251ZM19.3696 14.2555L20.7842 12.8416L20.7838 12.8413L19.3696 14.2555ZM21.9646 22.1569C22.2317 22.4247 22.549 22.6371 22.8982 22.782L24.4313 19.0875C24.568 19.1442 24.6921 19.2273 24.7966 19.3321L21.9646 22.1569ZM22.8982 22.782C23.2475 22.927 23.622 23.0016 24.0001 23.0016V19.0016C24.1481 19.0016 24.2946 19.0308 24.4313 19.0875L22.8982 22.782ZM24.0001 23.0016C24.3783 23.0016 24.7527 22.927 25.102 22.782L23.569 19.0875C23.7056 19.0308 23.8521 19.0016 24.0001 19.0016V23.0016ZM25.102 22.782C25.4513 22.6371 25.7686 22.4247 26.0356 22.1569L23.2036 19.3321C23.3081 19.2273 23.4323 19.1442 23.569 19.0875L25.102 22.782ZM26.0338 22.1587L31.2838 16.9087L28.4554 14.0803L23.2054 19.3303L26.0338 22.1587ZM31.2838 16.9087C31.8232 16.3693 32.1262 15.6378 32.1262 14.875H28.1262C28.1262 14.5769 28.2446 14.2911 28.4554 14.0803L31.2838 16.9087ZM32.1262 14.875C32.1262 14.1122 31.8232 13.3807 31.2838 12.8413L28.4554 15.6697C28.2446 15.4589 28.1262 15.1731 28.1262 14.875H32.1262ZM31.2838 12.8413C30.7445 12.3019 30.0129 11.9989 29.2501 11.9989V15.9989C28.9521 15.9989 28.6662 15.8805 28.4554 15.6697L31.2838 12.8413ZM29.2501 11.9989C28.4873 11.9989 27.7558 12.3019 27.2164 12.8413L30.0448 15.6697C29.8341 15.8805 29.5482 15.9989 29.2501 15.9989V11.9989ZM27.2161 12.8416L23.4606 16.5989L26.2897 19.4266L30.0452 15.6694L27.2161 12.8416ZM26.8751 18.0128V2.625H22.8751V18.0128H26.8751ZM26.8751 2.625C26.8751 1.86251 26.5722 1.13124 26.0331 0.592068L23.2046 3.4205C22.9937 3.20951 22.8751 2.92336 22.8751 2.625H26.8751ZM26.0331 0.592068C25.4939 0.0528996 24.7626 -0.25 24.0001 -0.25V3.75C23.7018 3.75 23.4156 3.63147 23.2046 3.4205L26.0331 0.592068ZM24.0001 -0.25C23.2376 -0.25 22.5064 0.052901 21.9672 0.592068L24.7956 3.4205C24.5846 3.63147 24.2985 3.75 24.0001 3.75V-0.25ZM21.9672 0.592068C21.428 1.13123 21.1251 1.8625 21.1251 2.625H25.1251C25.1251 2.92337 25.0066 3.20952 24.7956 3.4205L21.9672 0.592068ZM21.1251 2.625V18.0128H25.1251V2.625H21.1251ZM24.5397 16.5989L20.7842 12.8416L17.9551 15.6694L21.7106 19.4266L24.5397 16.5989ZM20.7838 12.8413C20.2445 12.3019 19.5129 11.9989 18.7501 11.9989V15.9989C18.4521 15.9989 18.1662 15.8805 17.9554 15.6697L20.7838 12.8413ZM18.7501 11.9989C17.9873 11.9989 17.2558 12.3019 16.7164 12.8413L19.5448 15.6697C19.3341 15.8805 19.0482 15.9989 18.7501 15.9989V11.9989ZM16.7164 12.8413C16.177 13.3807 15.874 14.1122 15.874 14.875H19.874C19.874 15.1731 19.7556 15.4589 19.5448 15.6697L16.7164 12.8413ZM15.874 14.875C15.874 15.6378 16.177 16.3693 16.7164 16.9087L19.5448 14.0803C19.7556 14.2911 19.874 14.5769 19.874 14.875H15.874ZM16.7164 16.9087L21.9664 22.1587L24.7948 19.3303L19.5448 14.0803L16.7164 16.9087Z" fill="black" mask="url(#path-3-inside-2_1208_3154)"/>
<path d="M3.26669 41H0.912287V33.7273H3.34126C4.05386 33.7273 4.66584 33.8729 5.1772 34.1641C5.68857 34.4529 6.08037 34.8684 6.35263 35.4105C6.62725 35.9503 6.76456 36.5978 6.76456 37.353C6.76456 38.1106 6.62607 38.7616 6.34908 39.3061C6.07446 39.8506 5.67673 40.2696 5.15589 40.5632C4.63506 40.8544 4.00533 41 3.26669 41ZM2.00959 40.0412H3.20632C3.7603 40.0412 4.22076 39.937 4.58771 39.7287C4.95466 39.518 5.22929 39.2138 5.41158 38.8161C5.59387 38.416 5.68501 37.9283 5.68501 37.353C5.68501 36.7824 5.59387 36.2983 5.41158 35.9006C5.23165 35.5028 4.96295 35.201 4.60547 34.995C4.24799 34.7891 3.8041 34.6861 3.27379 34.6861H2.00959V40.0412ZM10.3414 41.1101C9.83008 41.1101 9.38382 40.9929 9.00266 40.7585C8.62151 40.5241 8.32558 40.1963 8.11488 39.7749C7.90418 39.3535 7.79883 38.861 7.79883 38.2976C7.79883 37.7318 7.90418 37.237 8.11488 36.8132C8.32558 36.3894 8.62151 36.0604 9.00266 35.826C9.38382 35.5916 9.83008 35.4744 10.3414 35.4744C10.8528 35.4744 11.2991 35.5916 11.6802 35.826C12.0614 36.0604 12.3573 36.3894 12.568 36.8132C12.7787 37.237 12.8841 37.7318 12.8841 38.2976C12.8841 38.861 12.7787 39.3535 12.568 39.7749C12.3573 40.1963 12.0614 40.5241 11.6802 40.7585C11.2991 40.9929 10.8528 41.1101 10.3414 41.1101ZM10.345 40.2188C10.6764 40.2188 10.9511 40.1312 11.1689 39.956C11.3867 39.7808 11.5476 39.5476 11.6518 39.2564C11.7583 38.9652 11.8116 38.6444 11.8116 38.294C11.8116 37.946 11.7583 37.6264 11.6518 37.3352C11.5476 37.0417 11.3867 36.8061 11.1689 36.6286C10.9511 36.451 10.6764 36.3622 10.345 36.3622C10.0112 36.3622 9.7342 36.451 9.51403 36.6286C9.29622 36.8061 9.13406 37.0417 9.02752 37.3352C8.92335 37.6264 8.87127 37.946 8.87127 38.294C8.87127 38.6444 8.92335 38.9652 9.02752 39.2564C9.13406 39.5476 9.29622 39.7808 9.51403 39.956C9.7342 40.1312 10.0112 40.2188 10.345 40.2188ZM15.0858 41L13.4806 35.5455H14.5779L15.6468 39.5511H15.7001L16.7725 35.5455H17.8699L18.9352 39.5334H18.9885L20.0502 35.5455H21.1475L19.546 41H18.4629L17.3549 37.0618H17.2733L16.1653 41H15.0858ZM23.217 37.7614V41H22.1552V35.5455H23.1744V36.4332H23.2418C23.3673 36.1444 23.5638 35.9124 23.8313 35.7372C24.1012 35.562 24.4409 35.4744 24.8505 35.4744C25.2222 35.4744 25.5477 35.5526 25.8271 35.7088C26.1064 35.8627 26.323 36.0923 26.4769 36.3977C26.6308 36.7031 26.7077 37.0807 26.7077 37.5305V41H25.646V37.6584C25.646 37.263 25.543 36.9541 25.337 36.7315C25.131 36.5066 24.8481 36.3942 24.4883 36.3942C24.2421 36.3942 24.0231 36.4474 23.8313 36.554C23.6419 36.6605 23.4916 36.8168 23.3803 37.0227C23.2714 37.2263 23.217 37.4725 23.217 37.7614ZM29.1935 33.7273V41H28.1317V33.7273H29.1935ZM32.9196 41.1101C32.4082 41.1101 31.9619 40.9929 31.5808 40.7585C31.1996 40.5241 30.9037 40.1963 30.693 39.7749C30.4823 39.3535 30.377 38.861 30.377 38.2976C30.377 37.7318 30.4823 37.237 30.693 36.8132C30.9037 36.3894 31.1996 36.0604 31.5808 35.826C31.9619 35.5916 32.4082 35.4744 32.9196 35.4744C33.4309 35.4744 33.8772 35.5916 34.2583 35.826C34.6395 36.0604 34.9354 36.3894 35.1461 36.8132C35.3568 37.237 35.4622 37.7318 35.4622 38.2976C35.4622 38.861 35.3568 39.3535 35.1461 39.7749C34.9354 40.1963 34.6395 40.5241 34.2583 40.7585C33.8772 40.9929 33.4309 41.1101 32.9196 41.1101ZM32.9231 40.2188C33.2546 40.2188 33.5292 40.1312 33.747 39.956C33.9648 39.7808 34.1258 39.5476 34.2299 39.2564C34.3365 38.9652 34.3897 38.6444 34.3897 38.294C34.3897 37.946 34.3365 37.6264 34.2299 37.3352C34.1258 37.0417 33.9648 36.8061 33.747 36.6286C33.5292 36.451 33.2546 36.3622 32.9231 36.3622C32.5893 36.3622 32.3123 36.451 32.0922 36.6286C31.8743 36.8061 31.7122 37.0417 31.6056 37.3352C31.5015 37.6264 31.4494 37.946 31.4494 38.294C31.4494 38.6444 31.5015 38.9652 31.6056 39.2564C31.7122 39.5476 31.8743 39.7808 32.0922 39.956C32.3123 40.1312 32.5893 40.2188 32.9231 40.2188ZM38.2347 41.1207C37.8891 41.1207 37.5766 41.0568 37.2972 40.929C37.0179 40.7988 36.7965 40.6106 36.6332 40.3643C36.4722 40.1181 36.3917 39.8163 36.3917 39.4588C36.3917 39.151 36.4509 38.8977 36.5692 38.6989C36.6876 38.5 36.8474 38.3426 37.0487 38.2266C37.2499 38.1106 37.4748 38.023 37.7234 37.9638C37.9719 37.9046 38.2253 37.8596 38.4833 37.8288C38.81 37.791 39.0752 37.7602 39.2788 37.7365C39.4824 37.7105 39.6303 37.669 39.7227 37.6122C39.815 37.5554 39.8612 37.4631 39.8612 37.3352V37.3104C39.8612 37.0002 39.7736 36.7599 39.5984 36.5895C39.4255 36.419 39.1675 36.3338 38.8242 36.3338C38.4667 36.3338 38.185 36.4131 37.979 36.5717C37.7754 36.728 37.6346 36.902 37.5565 37.0938L36.5586 36.8665C36.677 36.535 36.8498 36.2675 37.0771 36.0639C37.3067 35.858 37.5707 35.7088 37.869 35.6165C38.1673 35.5218 38.4809 35.4744 38.81 35.4744C39.0278 35.4744 39.2586 35.5005 39.5025 35.5526C39.7487 35.6023 39.9783 35.6946 40.1914 35.8295C40.4068 35.9645 40.5832 36.1574 40.7205 36.4084C40.8578 36.657 40.9265 36.9801 40.9265 37.3778V41H39.8896V40.2543H39.8469C39.7783 40.3916 39.6753 40.5265 39.538 40.6591C39.4007 40.7917 39.2243 40.9018 39.0089 40.9893C38.7934 41.0769 38.5354 41.1207 38.2347 41.1207ZM38.4656 40.2685C38.7591 40.2685 39.0101 40.2105 39.2184 40.0945C39.4291 39.9785 39.5889 39.8269 39.6978 39.6399C39.8091 39.4505 39.8647 39.2481 39.8647 39.0327V38.3295C39.8268 38.3674 39.7534 38.4029 39.6445 38.4361C39.538 38.4669 39.4161 38.4941 39.2788 38.5178C39.1415 38.5391 39.0077 38.5592 38.8775 38.5781C38.7473 38.5947 38.6384 38.6089 38.5508 38.6207C38.3448 38.6468 38.1566 38.6906 37.9862 38.7521C37.8181 38.8137 37.6831 38.9025 37.5813 39.0185C37.4819 39.1321 37.4322 39.2836 37.4322 39.473C37.4322 39.7358 37.5292 39.9347 37.7234 40.0696C37.9175 40.2022 38.1649 40.2685 38.4656 40.2685ZM44.3826 41.1065C43.9423 41.1065 43.5493 40.9941 43.2037 40.7692C42.8604 40.5419 42.5905 40.2187 42.394 39.7997C42.1999 39.3783 42.1028 38.8729 42.1028 38.2834C42.1028 37.6939 42.2011 37.1896 42.3975 36.7706C42.5964 36.3516 42.8687 36.0308 43.2143 35.8082C43.56 35.5857 43.9518 35.4744 44.3897 35.4744C44.7283 35.4744 45.0005 35.5312 45.2065 35.6449C45.4148 35.7562 45.5758 35.8864 45.6895 36.0355C45.8055 36.1847 45.8954 36.3161 45.9593 36.4297H46.0233V33.7273H47.085V41H46.0481V40.1513H45.9593C45.8954 40.2673 45.8031 40.3999 45.6824 40.549C45.564 40.6982 45.4006 40.8284 45.1923 40.9396C44.984 41.0509 44.7141 41.1065 44.3826 41.1065ZM44.617 40.201C44.9224 40.201 45.1805 40.1205 45.3912 39.9595C45.6042 39.7962 45.7652 39.5701 45.8741 39.2812C45.9854 38.9924 46.041 38.6562 46.041 38.2727C46.041 37.8939 45.9866 37.5625 45.8777 37.2784C45.7688 36.9943 45.609 36.773 45.3983 36.6143C45.1876 36.4557 44.9271 36.3764 44.617 36.3764C44.2974 36.3764 44.0311 36.4593 43.818 36.625C43.6049 36.7907 43.444 37.0168 43.335 37.3033C43.2285 37.5897 43.1752 37.9129 43.1752 38.2727C43.1752 38.6373 43.2297 38.9652 43.3386 39.2564C43.4475 39.5476 43.6085 39.7784 43.8216 39.9489C44.037 40.117 44.3021 40.201 44.617 40.201Z" fill="black"/>
</svg>
