<svg width="18" height="18" viewBox="0 0 18 18" fill="none" xmlns="http://www.w3.org/2000/svg">
<circle cx="9" cy="9" r="9" fill="#FFB119"/>
<path d="M4.95299 13H13.0679C13.7657 13 14.3875 12.6685 14.7364 12.1298C15.0853 11.5774 15.0853 10.9282 14.7516 10.3757L10.6865 3.88397C10.3377 3.33154 9.71578 3 9.00288 3C8.28998 3 7.66806 3.33151 7.31922 3.88397L3.25418 10.3757C2.90534 10.9281 2.92049 11.5773 3.26931 12.1298C3.63318 12.6823 4.25523 13 4.95299 13Z" fill="white"/>
<path d="M8.9422 9.58831C9.23042 9.58831 9.47313 9.3673 9.47313 9.10484V6.48054C9.47313 6.21809 9.23042 5.99707 8.9422 5.99707C8.65398 5.99717 8.41138 6.21818 8.41138 6.48054V9.10484C8.41138 9.36739 8.65398 9.58831 8.9422 9.58831Z" fill="#FFB119"/>
<path d="M8.9422 11.384C9.23042 11.384 9.47313 11.163 9.47313 10.9005V10.4862C9.47313 10.2237 9.23042 10.0027 8.9422 10.0027C8.65398 10.0028 8.41138 10.2238 8.41138 10.4862V10.9006C8.41138 11.163 8.65398 11.384 8.9422 11.384V11.384Z" fill="#FFB119"/>
</svg>
