<svg width="15" height="23" viewBox="0 0 15 23" fill="none" xmlns="http://www.w3.org/2000/svg">
<path d="M14.8601 11.8789C14.8601 11.4189 14.5084 11.0671 14.0484 11.0671C13.5884 11.0671 13.2366 11.4189 13.2366 11.8789C13.2366 15.0448 10.666 17.6154 7.50014 17.6154C4.33425 17.6154 1.76367 15.0448 1.76367 11.8789C1.76367 11.4189 1.4119 11.0671 0.951901 11.0671C0.491901 11.0671 0.140137 11.4189 0.140137 11.8789C0.140137 15.6401 2.95425 18.806 6.68837 19.2119V21.3766H3.73896C3.27896 21.3766 2.9272 21.7283 2.9272 22.1883C2.9272 22.6483 3.27896 23.0001 3.73896 23.0001H11.2613C11.7213 23.0001 12.0731 22.6483 12.0731 22.1883C12.0731 21.7283 11.7213 21.3766 11.2613 21.3766H8.3119V19.2119C12.046 18.806 14.8601 15.6401 14.8601 11.8789Z" fill="#808080"/>
<path d="M7.49977 0C5.01037 0 2.98096 2.02941 2.98096 4.51882V11.8518C2.98096 14.3682 5.01037 16.3706 7.49977 16.3976C9.98918 16.3976 12.0186 14.3682 12.0186 11.8788V4.51882C12.0186 2.02941 9.98918 0 7.49977 0Z" fill="#808080"/>
</svg>
