<svg width="24" height="24" viewBox="0 0 24 24" fill="none" xmlns="http://www.w3.org/2000/svg">
<g clip-path="url(#clip0_1250_118)">
<path d="M17.6929 12.0001C17.6901 11.1036 17.594 10.2099 17.4062 9.3334H19.8062C19.6826 8.96777 19.5333 8.61133 19.3595 8.26673H17.1262C16.7064 6.8641 16.0552 5.54146 15.1995 4.3534C14.6528 4.12353 14.0828 3.95365 13.4995 3.84673C14.6717 5.10622 15.5566 6.60519 16.0929 8.24007H12.4995V3.7334H11.4995V8.24673H7.90618C8.44357 6.6089 9.33074 5.10753 10.5062 3.84673C9.92537 3.95187 9.35762 4.11951 8.81285 4.34673C7.95382 5.52981 7.29816 6.8479 6.87285 8.24673H4.62618C4.44923 8.59762 4.29773 8.96078 4.17285 9.3334H6.59285C6.40504 10.2099 6.30897 11.1036 6.30618 12.0001C6.30803 12.9806 6.41984 13.9578 6.63952 14.9134H4.27952C4.41744 15.2871 4.58232 15.6503 4.77285 16.0001H6.92618C7.33432 17.2773 7.93939 18.4829 8.71952 19.5734C9.27817 19.813 9.86176 19.9897 10.4595 20.1001C9.37146 18.9132 8.53469 17.5186 7.99952 16.0001H11.5062V20.2267H12.5062V16.0001H15.9995C15.4625 17.5192 14.6234 18.9139 13.5329 20.1001C14.1334 19.9858 14.7193 19.8047 15.2795 19.5601C16.0584 18.4737 16.6634 17.2726 17.0729 16.0001H19.2062C19.3958 15.6567 19.5607 15.3003 19.6995 14.9334H17.3329C17.563 13.9723 17.6838 12.9883 17.6929 12.0001V12.0001ZM11.4995 14.9134H7.67285C7.2035 13.0786 7.18292 11.1578 7.61285 9.3134H11.4995V14.9134ZM16.3262 14.9134H12.4995V9.3334H16.3862C16.5777 10.2092 16.6716 11.1036 16.6662 12.0001C16.6716 12.9814 16.5574 13.9597 16.3262 14.9134V14.9134Z" fill="#F8F8F8"/>
<path d="M11.9997 1.33325C9.89001 1.33325 7.82772 1.95884 6.0736 3.13091C4.31947 4.30298 2.9523 5.96888 2.14496 7.91796C1.33763 9.86704 1.12639 12.0118 1.53797 14.0809C1.94955 16.15 2.96545 18.0506 4.45721 19.5424C5.94897 21.0342 7.84959 22.0501 9.91872 22.4616C11.9878 22.8732 14.1326 22.662 16.0816 21.8546C18.0307 21.0473 19.6966 19.6801 20.8687 17.926C22.0408 16.1719 22.6663 14.1096 22.6663 11.9999C22.6663 9.17094 21.5425 6.45783 19.5422 4.45745C17.5418 2.45706 14.8287 1.33325 11.9997 1.33325ZM11.9997 21.3333C10.1537 21.3333 8.34922 20.7859 6.81436 19.7603C5.2795 18.7347 4.08322 17.2771 3.3768 15.5716C2.67039 13.8662 2.48555 11.9896 2.84568 10.1791C3.20581 8.36859 4.09473 6.70554 5.40002 5.40025C6.70531 4.09496 8.36835 3.20605 10.1788 2.84592C11.9893 2.48579 13.8659 2.67063 15.5714 3.37704C17.2768 4.08346 18.7345 5.27974 19.7601 6.8146C20.7856 8.34945 21.333 10.154 21.333 11.9999C21.333 14.4753 20.3497 16.8492 18.5993 18.5996C16.849 20.3499 14.475 21.3333 11.9997 21.3333Z" fill="#F8F8F8"/>
</g>
<defs>
<clipPath id="clip0_1250_118">
<rect width="24" height="24" fill="white"/>
</clipPath>
</defs>
</svg>
