<svg width="24" height="24" viewBox="0 0 24 24" fill="none" xmlns="http://www.w3.org/2000/svg">
<path d="M21.413 6.66675H2.58634C2.25394 6.66675 1.93515 6.7988 1.7001 7.03384C1.46505 7.26889 1.33301 7.58768 1.33301 7.92008V20.0801C1.33301 20.4125 1.46505 20.7313 1.7001 20.9663C1.93515 21.2014 2.25394 21.3334 2.58634 21.3334H21.413C21.7454 21.3334 22.0642 21.2014 22.2992 20.9663C22.5343 20.7313 22.6663 20.4125 22.6663 20.0801V7.92008C22.6663 7.58768 22.5343 7.26889 22.2992 7.03384C22.0642 6.7988 21.7454 6.66675 21.413 6.66675V6.66675ZM21.333 20.0001H2.66634V8.00008H21.333V20.0001Z" fill="#F8F8F8"/>
<path d="M5.70703 12.9668C6.10259 12.9668 6.48927 12.8495 6.81817 12.6297C7.14707 12.41 7.40341 12.0976 7.55479 11.7322C7.70617 11.3667 7.74577 10.9646 7.6686 10.5766C7.59143 10.1887 7.40095 9.83229 7.12124 9.55258C6.84154 9.27288 6.48517 9.0824 6.09721 9.00523C5.70925 8.92806 5.30712 8.96766 4.94166 9.11904C4.57621 9.27041 4.26385 9.52676 4.04409 9.85566C3.82433 10.1846 3.70703 10.5712 3.70703 10.9668C3.70703 11.4972 3.91774 12.0059 4.29282 12.381C4.66789 12.7561 5.1766 12.9668 5.70703 12.9668V12.9668ZM5.70703 9.90013C5.91905 9.89483 6.12784 9.95285 6.30673 10.0668C6.48561 10.1807 6.62647 10.3454 6.71131 10.5398C6.79615 10.7342 6.82111 10.9494 6.78302 11.1581C6.74492 11.3667 6.64549 11.5592 6.49743 11.7111C6.34937 11.863 6.15941 11.9672 5.9518 12.0106C5.74419 12.054 5.52837 12.0345 5.3319 11.9546C5.13544 11.8747 4.96724 11.738 4.84882 11.5621C4.73039 11.3861 4.6671 11.1789 4.66703 10.9668C4.66694 10.6885 4.77566 10.4211 4.96996 10.2218C5.16427 10.0225 5.42878 9.90709 5.70703 9.90013V9.90013Z" fill="#F8F8F8"/>
<path d="M5.26629 18.6666L9.26629 14.6666L11.3863 16.7866L9.50629 18.6666H10.8396L15.813 13.6932L19.9996 17.8466V16.5132L16.133 12.6666C16.0443 12.5786 15.9245 12.5293 15.7996 12.5293C15.6748 12.5293 15.5549 12.5786 15.4663 12.6666L12.0263 16.1066L9.57962 13.6666C9.49097 13.5786 9.37116 13.5293 9.24629 13.5293C9.12142 13.5293 9.00161 13.5786 8.91296 13.6666L3.94629 18.6666H5.26629Z" fill="#F8F8F8"/>
<path d="M20.0938 1.99992C20.0938 1.82311 20.0235 1.65354 19.8985 1.52851C19.7735 1.40349 19.6039 1.33325 19.4271 1.33325H4.76042C4.58361 1.33325 4.41404 1.40349 4.28901 1.52851C4.16399 1.65354 4.09375 1.82311 4.09375 1.99992V2.66659H20.0938V1.99992Z" fill="#F8F8F8"/>
<path d="M21.4137 4.66667C21.4137 4.48986 21.3435 4.32029 21.2185 4.19526C21.0934 4.07024 20.9239 4 20.7471 4H3.41374C3.23693 4 3.06736 4.07024 2.94233 4.19526C2.81731 4.32029 2.74707 4.48986 2.74707 4.66667V5.33333H21.4137V4.66667Z" fill="#F8F8F8"/>
</svg>
