<svg width="802" height="753" viewBox="0 0 802 753" fill="none" xmlns="http://www.w3.org/2000/svg">
<path d="M795.055 420.824C788.929 420.557 782.537 420.824 776.411 421.89C780.939 416.825 784.934 411.493 788.663 405.895C801.98 385.101 805.442 359.508 798.518 335.781C792.392 336.847 786.266 338.447 780.673 340.846C784.135 334.981 786.798 328.85 789.196 322.718C797.719 299.524 795.854 273.665 783.869 252.071C778.009 254.47 772.416 257.403 767.355 260.868C769.486 254.47 770.818 247.805 771.883 241.14C775.079 216.614 767.888 191.821 751.907 173.159C746.581 176.625 742.053 180.624 737.791 185.156C738.59 178.491 738.59 171.826 738.058 165.161C736.193 140.635 723.941 117.974 704.232 103.045C699.97 107.577 695.975 112.376 692.779 117.708C691.98 111.043 690.648 104.378 688.784 97.98C681.859 74.2532 665.079 54.7919 642.707 44.3948C639.511 49.7267 636.847 55.3251 634.716 61.1902C632.586 54.7919 629.922 48.6603 626.726 42.7953C615.007 20.9346 594.498 5.47224 570.261 0.140381C566 12.1371 564.402 25.2001 565.733 37.73C563.07 35.5972 559.874 33.7311 556.678 31.5984C535.637 18.8019 510.068 15.6028 486.629 22.8008C491.157 47.0607 505.806 68.3882 527.114 80.9181C530.31 82.7842 533.506 84.6504 536.702 85.9833C524.717 90.5154 514.063 97.98 505.54 107.577C518.857 123.04 536.968 133.437 557.21 136.369C566.799 153.965 582.513 167.827 601.157 175.025C606.75 194.22 619.268 211.015 636.048 221.946C637.646 241.94 646.169 260.868 660.285 275.264C657.622 295.259 661.883 315.52 672.803 332.582C665.878 351.51 665.879 372.304 673.07 391.232C662.416 408.294 658.155 428.555 661.084 448.55C646.968 462.946 638.445 481.874 637.114 502.135C620.334 513.332 608.082 530.127 602.489 549.322C583.845 556.787 568.13 570.383 558.808 588.244C538.833 591.444 520.988 601.574 507.937 617.037C483.433 615.704 459.729 625.034 442.683 642.629C430.964 654.36 424.039 666.09 420.576 676.753C417.38 687.417 406.194 693.549 395.274 690.35C388.615 688.483 383.554 683.152 381.69 676.753C378.228 665.823 371.303 654.36 359.584 642.629C342.538 625.034 318.833 615.97 294.33 617.037C281.279 601.574 263.434 591.444 243.458 587.978C233.869 570.116 218.422 556.52 199.778 549.055C194.184 529.594 181.933 513.065 165.153 501.868C163.821 481.874 155.298 462.679 141.182 448.283C144.112 428.289 139.85 408.028 129.197 390.966C136.121 372.038 136.388 351.243 129.463 332.315C140.383 315.253 144.644 294.992 141.981 274.998C156.097 260.602 164.886 241.674 166.218 221.679C182.998 210.749 195.516 193.953 201.109 174.759C220.02 167.561 235.468 153.965 245.056 136.103C265.298 132.904 283.409 122.773 296.726 107.311C288.204 97.7134 277.284 90.5154 265.564 85.7167C268.761 84.1172 271.957 82.5176 275.153 80.6515C296.46 68.1216 311.109 47.0607 315.637 22.8008C292.199 15.3362 266.363 18.5353 245.589 31.5984C242.393 33.4645 239.463 35.5972 236.533 37.73C237.865 24.9335 236.533 12.1371 232.005 0.140381C208.034 5.47224 187.259 21.2012 175.54 42.7953C172.344 48.6603 169.681 54.7919 167.55 61.1902C165.419 55.3251 162.756 49.7267 159.56 44.3948C137.187 54.7919 120.407 74.2532 113.482 97.98C111.618 104.378 110.286 111.043 109.487 117.708C106.291 112.376 102.562 107.311 98.0344 103.045C78.3249 117.974 65.8068 140.635 64.2087 165.428C63.676 172.093 63.6761 178.758 64.4752 185.689C60.2137 181.157 55.4194 177.158 50.0925 173.426C33.8456 192.087 26.6543 216.88 30.1168 241.407C30.9158 248.072 32.5139 254.737 34.6447 261.135C29.5841 257.669 23.9909 254.737 18.1313 252.337C6.14588 273.931 4.28147 299.791 12.8045 322.984C14.9352 329.383 17.865 335.514 21.3275 341.113C15.4679 338.713 9.60834 337.114 3.48244 336.048C-3.44249 359.774 0.0200105 385.367 13.3372 406.161C16.7996 411.76 21.0611 417.092 25.5889 422.157C19.463 421.091 13.0708 420.557 6.94487 421.091C5.08047 445.617 13.8699 469.877 31.1822 487.472C35.7101 492.271 41.0368 496.803 46.3637 500.535C40.2378 500.802 33.8456 501.602 27.9861 503.201C31.4485 527.728 45.0321 549.589 65.8069 563.185C71.4001 566.917 77.2596 570.116 83.3855 572.782C77.2596 574.382 71.4 576.514 66.0731 579.447C74.5961 602.64 92.4411 621.302 115.613 630.1C121.739 632.499 128.397 634.632 134.79 635.698C129.197 638.364 123.87 641.83 119.076 645.829C132.126 666.623 153.7 681.019 178.204 684.751C184.862 685.817 191.521 686.351 198.179 686.351C193.385 690.35 188.857 694.615 184.862 699.68C202.175 717.542 226.146 726.873 250.916 725.54C257.574 725.273 264.233 724.474 270.891 722.874C266.896 727.673 263.434 733.004 260.77 738.603C281.279 752.199 306.848 756.465 330.552 749.8C340.94 747.134 350.794 742.868 359.85 736.737C384.62 719.941 417.114 719.941 441.884 736.737C450.939 742.602 460.794 747.134 471.181 749.8C494.886 756.465 520.455 752.199 540.963 738.603C538.3 733.004 534.838 727.673 530.842 722.874C537.501 724.474 544.16 725.273 550.818 725.54C575.588 726.873 599.559 717.542 616.871 699.947C612.876 695.148 608.615 690.616 603.554 686.617C610.213 686.884 616.871 686.351 623.53 685.018C648.033 681.285 669.341 666.889 682.658 646.095C677.864 642.096 672.537 638.631 666.944 635.965C673.602 634.632 679.995 632.766 686.121 630.366C709.292 621.569 727.138 602.907 735.661 579.714C730.067 576.781 724.208 574.648 718.348 573.049C724.474 570.383 730.334 567.184 735.927 563.451C756.435 549.855 770.285 527.994 773.748 503.468C767.622 501.868 761.496 501.069 755.37 500.802C760.963 496.803 766.024 492.538 770.551 487.739C787.864 469.611 796.653 445.351 795.055 420.824ZM253.845 605.573C268.494 611.171 280.746 621.035 289.269 634.365C299.923 650.894 303.385 665.556 300.722 678.62C287.937 675.687 276.218 666.356 265.564 649.827C257.041 636.498 252.78 621.302 253.845 605.573ZM206.17 568.517C219.221 577.048 229.075 589.577 234.669 604.24C241.593 622.635 241.86 637.564 236.799 649.827C224.814 644.229 215.226 632.499 208.301 614.104C202.441 599.708 201.908 583.712 206.17 568.517ZM167.284 522.396C178.204 533.326 185.395 547.722 187.526 563.185C190.455 582.646 187.526 597.309 179.802 608.239C169.414 600.241 162.489 586.911 159.56 567.45C157.163 551.988 160.092 536.259 167.284 522.396ZM139.051 469.077C147.574 482.14 151.303 497.603 150.238 513.332C148.906 533.06 143.046 546.656 133.192 555.72C124.669 545.59 120.674 531.194 122.005 511.466C123.071 495.737 128.93 481.074 139.051 469.077ZM86.0489 382.168C93.2402 368.305 104.959 357.375 118.809 350.71C120.94 366.173 118.276 381.901 110.819 395.498C101.497 412.826 90.5767 422.957 78.0586 427.222C74.3298 414.159 76.7269 399.497 86.0489 382.168ZM71.9327 356.842C71.1337 343.512 76.4606 329.649 89.2451 314.72C99.3661 302.723 112.95 294.459 127.865 290.727C126.799 306.189 120.674 321.118 110.553 332.848C98.0344 347.778 84.9836 355.509 71.9327 356.842ZM97.2354 448.55C101.497 433.621 110.286 420.291 122.804 410.694C128.131 425.356 128.93 441.352 124.402 456.281C119.076 475.209 110.286 487.472 98.8334 494.137C92.7075 482.407 91.9085 467.478 97.2354 448.55ZM123.337 271.799C107.623 283.795 93.5066 288.594 80.4558 286.994C82.3202 273.931 90.5767 261.402 106.291 249.405C118.543 239.807 133.724 234.476 149.172 234.209C144.644 249.138 135.855 262.468 123.337 271.799ZM275.153 107.844C262.901 117.441 247.719 122.507 232.005 122.773C212.296 123.04 198.18 118.508 188.325 109.444C197.647 100.113 211.763 94.7809 231.472 94.5143C247.187 94.2477 262.635 98.7798 275.153 107.844ZM252.78 44.1282C266.097 35.8638 281.545 32.3981 297.259 33.7311C291.4 48.1271 280.746 60.1238 267.429 68.1216C250.649 78.2521 236 81.4512 222.949 78.5187C226.412 65.7223 235.734 54.2588 252.78 44.1282ZM188.058 49.7267C195.516 35.8638 207.235 24.9335 221.351 18.5353C223.482 33.9977 220.286 49.7267 212.828 63.3229C203.24 80.6515 192.32 90.5154 179.535 94.5143C176.339 81.7178 178.736 67.0552 188.058 49.7267ZM179.269 136.903C194.451 133.17 210.165 134.503 224.547 140.635C214.426 152.632 200.843 160.896 185.661 164.362C166.485 168.894 151.569 167.294 140.383 160.629C147.308 149.432 160.092 141.435 179.269 136.903ZM127.066 102.246C131.594 87.3163 140.649 74.2532 152.901 64.9225C158.228 79.5851 158.494 95.5807 153.966 110.51C148.373 129.438 139.584 141.435 127.865 148.099C122.005 136.103 121.473 121.174 127.066 102.246ZM136.654 189.155C150.77 182.223 166.485 180.357 181.933 183.29C174.475 197.153 163.022 208.083 148.906 214.748C131.061 223.279 116.146 224.878 103.628 220.613C108.155 208.083 118.809 197.686 136.654 189.155ZM78.5913 166.228C79.6567 150.765 85.7825 135.836 96.1699 124.106C104.427 137.436 108.155 152.898 106.824 168.361C105.226 188.088 99.3661 201.685 89.2451 210.482C80.7221 200.352 76.9933 185.956 78.5913 166.228ZM52.756 194.487C63.6761 205.684 70.6011 220.08 72.4655 235.542C75.1289 255.003 71.9327 269.666 64.2087 280.33C53.8213 272.065 47.1628 258.736 44.4994 239.274C42.3686 223.812 45.2984 208.083 52.756 194.487ZM25.0562 272.332C38.107 281.129 47.6954 293.659 53.0223 308.322C59.6808 326.983 59.9472 341.913 54.354 353.909C42.3685 348.044 33.0465 336.314 26.3879 317.919C21.061 303.257 20.7947 287.261 25.0562 272.332ZM14.4025 354.176C28.785 360.041 41.0369 370.171 49.2935 383.501C59.6809 400.296 63.1433 414.959 60.2136 427.756C47.4291 424.556 35.71 415.226 25.3226 398.43C17.066 385.101 13.3371 369.638 14.4025 354.176ZM41.5695 477.075C30.6494 465.878 23.7245 451.482 21.5938 436.02C37.0417 438.686 51.158 446.15 61.8117 457.347C75.3952 471.743 81.7875 485.073 81.7875 498.403C68.4703 497.869 55.153 491.205 41.5695 477.075ZM73.7972 550.921C60.7463 542.39 50.8915 529.861 45.5647 515.198C61.0126 514.398 76.4605 518.93 89.5113 527.461C106.025 538.392 114.814 550.388 117.744 563.185C104.693 565.584 90.0441 561.852 73.7972 550.921ZM120.674 616.237C106.025 610.638 93.7728 600.508 85.5162 587.178C100.698 583.179 116.412 584.246 131.061 590.111C149.439 597.309 160.625 607.173 166.218 619.169C153.966 624.235 139.051 623.435 120.674 616.237ZM180.335 670.355C164.887 667.956 150.77 660.491 139.85 649.294C153.7 642.096 169.414 639.697 184.862 642.363C204.305 645.562 217.356 652.76 225.346 663.424C214.426 670.888 199.778 673.554 180.335 670.355ZM250.116 710.344C234.668 711.144 219.221 706.878 206.17 698.347C218.155 688.483 233.337 682.885 248.785 682.085C268.494 681.019 282.877 685.284 292.731 694.082C283.676 703.946 269.826 709.544 250.116 710.344ZM326.823 734.871C311.908 738.87 295.927 738.07 281.279 732.471C291.133 720.208 304.45 711.677 319.366 707.678C338.276 702.613 353.191 703.679 364.91 710.077C358.252 721.541 345.734 730.072 326.823 734.871ZM328.954 672.488C317.768 661.558 310.576 647.162 308.446 631.699C323.894 634.098 338.01 641.296 348.93 652.493C362.78 666.356 369.172 679.952 369.438 693.282C356.121 693.016 342.804 686.351 328.954 672.488ZM787.065 353.909C788.397 369.372 784.401 385.101 776.145 398.164C765.757 414.959 754.038 424.29 741.254 427.489C738.59 414.426 741.786 400.03 752.174 383.234C760.43 369.905 772.682 359.508 787.065 353.909ZM776.411 272.065C780.939 286.994 780.406 302.99 775.079 317.653C768.421 336.314 759.099 347.778 747.113 353.643C741.786 341.646 741.786 326.45 748.445 308.055C753.772 293.393 763.36 280.863 776.411 272.065ZM729.268 235.542C731.133 220.08 738.058 205.684 748.978 194.487C756.435 208.083 759.365 223.812 757.234 239.274C754.571 258.736 747.912 272.065 737.525 280.33C729.535 269.666 726.605 255.003 729.268 235.542ZM690.915 395.498C683.457 381.901 680.794 366.173 682.924 350.71C697.041 357.375 708.494 368.572 715.685 382.168C725.007 399.497 727.138 414.426 723.675 427.222C711.157 422.957 700.237 412.826 690.915 395.498ZM702.9 494.404C691.447 487.739 682.925 475.476 677.331 456.548C673.07 441.618 673.602 425.623 678.929 410.96C691.181 420.557 700.237 433.621 704.498 448.816C709.825 467.744 709.292 482.674 702.9 494.404ZM691.181 333.115C681.06 321.385 674.934 306.456 673.869 290.993C689.05 294.726 702.634 302.99 712.489 314.987C725.273 329.916 730.6 344.045 729.801 357.108C716.75 355.775 703.966 348.044 691.181 333.115ZM705.83 124.373C715.951 136.103 722.077 150.765 723.409 166.494C725.007 186.222 721.278 200.618 712.755 210.749C702.9 201.951 696.774 188.355 695.176 168.627C693.845 153.165 697.573 137.436 705.83 124.373ZM648.566 64.6559C661.084 73.9866 670.14 87.0497 674.668 101.979C680.261 120.907 679.728 135.836 673.602 147.566C662.15 141.168 653.36 128.905 647.501 109.977C642.973 95.3141 643.506 79.3185 648.566 64.6559ZM580.382 18.5353C594.498 24.9335 606.218 35.8638 613.675 49.7267C623.264 67.0552 625.661 81.7178 622.198 94.5143C609.414 90.5154 598.494 80.6515 588.905 63.3229C581.181 49.7267 578.251 33.9977 580.382 18.5353ZM534.305 68.1216C520.988 60.1238 510.6 48.1271 504.474 33.7311C519.922 32.3981 535.637 35.8638 548.954 44.1282C565.733 54.2588 575.322 65.7223 578.784 78.5187C565.733 81.4512 551.351 78.5187 534.305 68.1216ZM569.462 122.773C554.014 122.507 538.833 117.441 526.315 107.844C539.099 98.7798 554.281 94.2477 569.728 94.5143C589.438 94.7809 603.554 100.113 612.876 109.444C603.288 118.508 589.172 123.04 569.462 122.773ZM577.186 140.635C591.569 134.503 607.283 133.17 622.465 136.903C641.641 141.435 654.159 149.432 661.351 160.629C649.898 167.294 634.983 168.894 616.072 164.362C600.891 160.896 587.307 152.632 577.186 140.635ZM619.801 183.29C635.249 180.357 650.963 182.223 665.08 189.155C682.925 197.686 693.578 208.083 698.106 220.613C685.588 224.878 670.673 223.279 652.828 214.748C638.711 208.083 627.259 197.153 619.801 183.29ZM652.561 233.942C668.009 234.209 683.191 239.541 695.443 249.138C711.157 261.135 719.147 273.665 721.278 286.728C708.227 288.327 693.845 283.529 678.397 271.532C665.879 262.201 656.823 248.872 652.561 233.942ZM662.682 469.077C672.803 481.074 678.663 495.737 679.728 511.466C681.06 531.194 677.065 545.59 668.542 555.72C658.687 546.923 652.828 533.06 651.496 513.332C650.431 497.603 654.426 482.14 662.682 469.077ZM614.208 563.185C616.339 547.722 623.53 533.326 634.45 522.396C641.641 536.259 644.571 551.988 642.174 567.45C639.244 586.911 632.319 600.241 621.932 608.239C614.208 597.575 611.278 582.646 614.208 563.185ZM567.065 604.24C572.392 589.577 582.513 577.048 595.564 568.517C599.825 583.446 599.026 599.441 593.699 614.104C586.774 632.499 577.186 643.962 565.201 649.827C559.874 637.831 560.14 622.635 567.065 604.24ZM512.465 634.365C520.721 621.302 533.239 611.171 547.622 605.573C548.687 621.035 544.692 636.498 536.169 649.561C525.516 666.09 513.796 675.42 501.012 678.353C498.348 665.556 502.077 650.894 512.465 634.365ZM452.804 652.493C463.724 641.296 477.84 634.098 493.288 631.699C490.891 647.162 483.7 661.291 472.78 672.488C458.93 686.617 445.613 693.016 432.295 693.282C432.562 679.952 438.954 666.623 452.804 652.493ZM475.177 734.871C456.266 729.805 443.748 721.541 436.823 710.077C448.276 703.679 463.191 702.613 482.368 707.678C497.549 711.677 510.867 720.208 520.455 732.471C506.072 738.07 490.092 739.136 475.177 734.871ZM551.617 710.344C531.908 709.278 518.058 703.679 509.002 694.082C518.857 685.284 533.239 681.019 552.949 682.085C568.397 682.618 583.578 688.483 595.564 698.347C582.779 706.878 567.331 711.144 551.617 710.344ZM621.399 670.089C601.956 673.288 587.307 670.888 576.387 663.157C584.377 652.493 597.428 645.295 616.871 642.096C632.319 639.43 648.034 641.83 661.883 649.028C650.963 660.491 636.847 667.689 621.399 670.089ZM681.06 616.237C662.682 623.435 647.767 624.235 635.515 619.169C641.109 607.173 652.295 597.309 670.673 590.111C685.055 584.246 701.036 583.179 716.217 587.178C707.961 600.508 695.709 610.638 681.06 616.237ZM756.169 515.198C750.842 529.861 740.987 542.39 727.937 550.921C711.423 561.852 697.041 565.584 683.99 563.185C686.92 550.122 695.709 538.392 712.222 527.461C725.273 518.664 740.721 514.398 756.169 515.198ZM719.946 498.403C719.946 485.073 726.338 471.477 739.922 457.347C750.576 446.15 764.692 438.686 780.14 436.02C778.009 451.482 771.084 465.878 760.164 477.075C746.581 491.205 733.263 498.136 719.946 498.403Z" fill="#008755"/>
<path d="M178.204 406.428V416.559C190.989 441.352 205.372 465.079 221.352 488.006H185.662C185.662 488.006 192.853 502.668 214.694 502.668H587.308C609.415 502.668 616.339 488.006 616.339 488.006H583.579C600.093 463.479 615.274 437.886 628.591 411.493H646.436V383.501H549.487C447.478 300.591 425.638 158.763 485.032 52.6592C314.839 86.25 187.26 233.942 178.204 406.428ZM185.662 406.695C236.001 375.503 293.531 357.642 352.659 354.176V406.695H185.662ZM540.698 395.231L532.175 406.695H375.565V353.643C433.362 353.909 489.826 368.305 540.698 395.231ZM508.737 364.306C406.195 324.318 291.401 331.516 194.984 384.301C213.096 237.408 316.437 115.575 458.398 73.9867C417.914 172.36 437.623 285.395 508.737 364.306Z" fill="#008755"/>
<path d="M384.353 626.367H417.38C439.486 626.367 446.411 611.705 446.411 611.705H355.056C355.322 611.705 362.247 626.367 384.353 626.367Z" fill="#008755"/>
<path d="M512.999 580.78H288.737C288.737 580.78 295.929 595.442 317.769 595.442H483.701C505.807 595.442 512.999 580.78 512.999 580.78Z" fill="#008755"/>
<path d="M563.602 549.855H238.13C238.13 549.855 245.321 564.518 267.161 564.518H534.304C556.677 564.518 563.602 549.855 563.602 549.855Z" fill="#008755"/>
<path d="M594.5 518.93H207.236C207.236 518.93 214.428 533.593 236.268 533.593H565.468C587.575 533.593 594.5 518.93 594.5 518.93Z" fill="#008755"/>
</svg>
