<svg width="12" height="12" viewBox="0 0 12 12" fill="none" xmlns="http://www.w3.org/2000/svg">
<path d="M3.19322 0.314672L4.86785 1.99283C5.46594 2.59217 5.22668 3.61106 4.4492 3.85079C3.9109 4.0306 3.61185 4.62994 3.7315 5.16935C4.03054 6.36803 5.58555 7.98626 6.84153 8.28593C7.37983 8.46573 7.97791 8.10613 8.15731 7.56672C8.39655 6.78757 9.41329 6.54784 10.0114 7.14718L11.686 8.82534C12.1047 9.30481 12.1047 10.024 11.686 10.4436L10.5496 11.5823C9.35348 12.7211 6.18364 11.4624 3.37265 8.64554C0.561653 5.82862 -0.754154 2.65211 0.442036 1.45342L1.57839 0.314672C2.05686 -0.104891 2.77456 -0.104891 3.19322 0.314672Z" fill="#BABFC7"/>
</svg>
