<svg width="23" height="23" viewBox="0 0 23 23" fill="none" xmlns="http://www.w3.org/2000/svg">
<path fill-rule="evenodd" clip-rule="evenodd" d="M11.6997 7.29333C12.7146 7.29333 13.545 6.46293 13.545 5.44799C13.545 4.43306 12.7146 3.60266 11.6997 3.60266C10.6848 3.60266 9.85436 4.43306 9.85436 5.44799C9.85436 6.46293 10.6848 7.29333 11.6997 7.29333ZM13.545 11.9067C13.545 12.9216 12.7146 13.752 11.6997 13.752C10.6847 13.752 9.85434 12.9216 9.85434 11.9067C9.85434 10.8918 10.6847 10.0614 11.6997 10.0614C12.7146 10.0614 13.545 10.8918 13.545 11.9067ZM9.85434 18.3654C9.85434 17.3504 10.6847 16.52 11.6997 16.52C12.7146 16.52 13.545 17.3504 13.545 18.3654C13.545 19.3803 12.7146 20.2107 11.6997 20.2107C10.6847 20.2107 9.85434 19.3803 9.85434 18.3654Z" fill="black"/>
<mask id="mask0_902_5102" style="mask-type:alpha" maskUnits="userSpaceOnUse" x="9" y="3" width="5" height="18">
<path fill-rule="evenodd" clip-rule="evenodd" d="M11.6997 7.29333C12.7146 7.29333 13.545 6.46293 13.545 5.44799C13.545 4.43306 12.7146 3.60266 11.6997 3.60266C10.6848 3.60266 9.85436 4.43306 9.85436 5.44799C9.85436 6.46293 10.6848 7.29333 11.6997 7.29333ZM13.545 11.9067C13.545 12.9216 12.7146 13.752 11.6997 13.752C10.6847 13.752 9.85434 12.9216 9.85434 11.9067C9.85434 10.8918 10.6847 10.0614 11.6997 10.0614C12.7146 10.0614 13.545 10.8918 13.545 11.9067ZM9.85434 18.3654C9.85434 17.3504 10.6847 16.52 11.6997 16.52C12.7146 16.52 13.545 17.3504 13.545 18.3654C13.545 19.3803 12.7146 20.2107 11.6997 20.2107C10.6847 20.2107 9.85434 19.3803 9.85434 18.3654Z" fill="white"/>
</mask>
<g mask="url(#mask0_902_5102)">
<rect x="0.627686" y="0.834717" width="22.144" height="22.144" fill="#6E6B7B"/>
</g>
</svg>
