<svg width="16" height="13" viewBox="0 0 16 13" fill="none" xmlns="http://www.w3.org/2000/svg">
<path d="M2.73948 12.9865H12.7186C13.5767 12.9865 14.3414 12.5788 14.7705 11.9164C15.1995 11.2371 15.1995 10.4387 14.7891 9.75927L9.79019 1.77626C9.36121 1.09691 8.59642 0.689209 7.71975 0.689209C6.84308 0.689209 6.07829 1.09688 5.64931 1.77626L0.650406 9.75927C0.221429 10.4386 0.240048 11.2369 0.669012 11.9164C1.11647 12.5959 1.88143 12.9865 2.73948 12.9865Z" fill="white"/>
<path d="M7.64514 8.79113C7.99957 8.79113 8.29804 8.51934 8.29804 8.19659V4.96942C8.29804 4.64667 7.99957 4.37488 7.64514 4.37488C7.29071 4.375 6.99237 4.64679 6.99237 4.96942V8.19659C6.99237 8.51946 7.29071 8.79113 7.64514 8.79113Z" fill="#FFB119"/>
<path d="M7.64514 10.9993C7.99957 10.9993 8.29804 10.7275 8.29804 10.4048V9.8952C8.29804 9.57245 7.99957 9.30066 7.64514 9.30066C7.29071 9.30078 6.99237 9.57257 6.99237 9.89529V10.4049C6.99237 10.7275 7.29071 10.9993 7.64514 10.9993V10.9993Z" fill="#FFB119"/>
</svg>
