<svg width="22" height="22" viewBox="0 0 22 22" fill="none" xmlns="http://www.w3.org/2000/svg">
<path d="M0.00011779 15.6745C0.00011779 15.1167 0.446355 14.6704 1.0042 14.6704C1.55081 14.6704 1.99705 15.1167 1.99705 15.6745V18.5862L6.42604 14.1686C6.81643 13.7782 7.44116 13.7782 7.83169 14.1686C8.22208 14.559 8.22208 15.1949 7.83169 15.5854L3.4141 20.0031H6.33698C6.88359 20.0031 7.32982 20.4493 7.32982 21.0071C7.32982 21.5538 6.88359 22 6.33698 22H1.00444C0.446631 22 0.00035337 21.5538 0.00035337 21.0071L0.00011779 15.6745ZM20.0028 3.414L15.5852 7.83161C15.1948 8.22201 14.5589 8.22201 14.1684 7.83161C13.778 7.44122 13.778 6.81648 14.1684 6.42595L18.586 1.99694H15.6743C15.1165 1.99694 14.6702 1.5507 14.6702 1.00409C14.6702 0.446279 15.1165 0 15.6743 0H21.0068C21.5534 0 21.9997 0.44624 21.9997 1.00409V6.33666C21.9997 6.88327 21.5534 7.32951 21.0068 7.32951C20.449 7.32951 20.0028 6.88327 20.0028 6.33666L20.0028 3.414ZM3.41398 1.99714L7.83157 6.42615C8.22197 6.81654 8.22197 7.44128 7.83157 7.83181C7.44118 8.22221 6.81645 8.22221 6.42592 7.83181L1.99693 3.41419V6.33709C1.99693 6.8837 1.55069 7.32994 1.00408 7.32994C0.446277 7.32994 0 6.8837 0 6.33709V1.00452C0 0.814849 0.0446551 0.64758 0.133812 0.491379L0.145015 0.469127H0.156217V0.457925L0.16742 0.446722L0.178622 0.424471H0.189825V0.413268C0.256731 0.323957 0.323637 0.257047 0.412951 0.19014H0.424154V0.178938L0.446405 0.167735L0.457608 0.156532H0.46881V0.14533L0.491062 0.134127C0.647282 0.0560167 0.81455 0.000310353 1.0042 0.000310353H6.33674C6.88335 0.000310353 7.32959 0.44655 7.32959 1.0044C7.32959 1.55101 6.88335 1.99725 6.33674 1.99725H3.41386L3.41398 1.99714ZM18.5862 20.0031L14.1686 15.5855C13.7782 15.1951 13.7782 14.5592 14.1686 14.1686C14.559 13.7782 15.1949 13.7782 15.5855 14.1686L20.0031 18.5862V15.6745C20.0031 15.1167 20.4493 14.6705 21.0072 14.6705C21.5538 14.6705 22 15.1167 22 15.6745V21.0071C22 21.5537 21.5538 22 21.0072 22H15.6746C15.1168 22 14.6705 21.5537 14.6705 21.0071C14.6705 20.4493 15.1168 20.003 15.6746 20.003L18.5862 20.0031Z" fill="#7367F0"/>
</svg>
