<svg width="12" height="12" viewBox="0 0 12 12" fill="none" xmlns="http://www.w3.org/2000/svg">
<path d="M1.95299 11.4853H10.0679C10.7657 11.4853 11.3875 11.1216 11.7364 10.5307C12.0853 9.9246 12.0853 9.21239 11.7516 8.60622L7.68654 1.48443C7.3377 0.878369 6.71578 0.514648 6.00288 0.514648C5.28998 0.514648 4.66806 0.878342 4.31922 1.48443L0.254183 8.60622C-0.0946557 9.21228 -0.0795146 9.92449 0.269313 10.5307C0.633184 11.1368 1.25523 11.4853 1.95299 11.4853Z" fill="#BABFC7"/>
<path d="M5.9422 7.74256C6.23042 7.74256 6.47313 7.50009 6.47313 7.21216V4.33313C6.47313 4.04521 6.23042 3.80273 5.9422 3.80273C5.65398 3.80284 5.41138 4.04531 5.41138 4.33313V7.21216C5.41138 7.5002 5.65398 7.74256 5.9422 7.74256Z" fill="white"/>
<path d="M5.9422 9.71244C6.23042 9.71244 6.47313 9.46997 6.47313 9.18204V8.72742C6.47313 8.43949 6.23042 8.19702 5.9422 8.19702C5.65398 8.19713 5.41138 8.4396 5.41138 8.72751V9.18212C5.41138 9.46994 5.65398 9.71241 5.9422 9.71241V9.71244Z" fill="white"/>
</svg>
