<svg width="34" height="41" viewBox="0 0 34 41" fill="none" xmlns="http://www.w3.org/2000/svg">
<path d="M7.31117 34.0923H6.20321C6.1606 33.8556 6.08129 33.6473 5.96529 33.4673C5.84928 33.2874 5.70724 33.1347 5.53915 33.0092C5.37106 32.8838 5.18285 32.7891 4.97452 32.7251C4.76855 32.6612 4.54957 32.6293 4.31756 32.6293C3.89853 32.6293 3.52329 32.7346 3.19185 32.9453C2.86278 33.156 2.60236 33.465 2.4106 33.8722C2.22121 34.2794 2.12651 34.7765 2.12651 35.3636C2.12651 35.9555 2.22121 36.455 2.4106 36.8622C2.60236 37.2694 2.86396 37.5772 3.1954 37.7855C3.52684 37.9938 3.89971 38.098 4.31401 38.098C4.54365 38.098 4.76145 38.0672 4.96742 38.0057C5.17575 37.9418 5.36396 37.8482 5.53205 37.7251C5.70014 37.602 5.84218 37.4517 5.95819 37.2741C6.07656 37.0942 6.15823 36.8883 6.20321 36.6562L7.31117 36.6598C7.25198 37.0173 7.13716 37.3464 6.96671 37.647C6.79862 37.9453 6.582 38.2034 6.31685 38.4212C6.05407 38.6366 5.7534 38.8035 5.41486 38.9219C5.07632 39.0402 4.707 39.0994 4.30691 39.0994C3.67717 39.0994 3.11609 38.9503 2.62367 38.652C2.13124 38.3513 1.74299 37.9216 1.4589 37.3629C1.17717 36.8042 1.03631 36.1378 1.03631 35.3636C1.03631 34.5871 1.17836 33.9207 1.46245 33.3643C1.74654 32.8056 2.1348 32.3771 2.62722 32.0788C3.11964 31.7782 3.67954 31.6278 4.30691 31.6278C4.6928 31.6278 5.05265 31.6835 5.38645 31.7947C5.72263 31.9036 6.02447 32.0646 6.29199 32.2777C6.55951 32.4884 6.78087 32.7464 6.95605 33.0518C7.13124 33.3549 7.24962 33.7017 7.31117 34.0923ZM10.1263 39.1207C9.78069 39.1207 9.46819 39.0568 9.18883 38.929C8.90948 38.7988 8.68812 38.6106 8.52477 38.3643C8.36378 38.1181 8.28329 37.8163 8.28329 37.4588C8.28329 37.151 8.34248 36.8977 8.46085 36.6989C8.57922 36.5 8.73902 36.3426 8.94025 36.2266C9.14148 36.1106 9.36639 36.023 9.61497 35.9638C9.86355 35.9046 10.1169 35.8596 10.3749 35.8288C10.7016 35.791 10.9668 35.7602 11.1704 35.7365C11.374 35.7105 11.5219 35.669 11.6143 35.6122C11.7066 35.5554 11.7528 35.4631 11.7528 35.3352V35.3104C11.7528 35.0002 11.6652 34.7599 11.49 34.5895C11.3171 34.419 11.0591 34.3338 10.7158 34.3338C10.3583 34.3338 10.0766 34.4131 9.87065 34.5717C9.66705 34.728 9.52619 34.902 9.44806 35.0938L8.4502 34.8665C8.56857 34.535 8.74139 34.2675 8.96866 34.0639C9.1983 33.858 9.46227 33.7088 9.76056 33.6165C10.0589 33.5218 10.3725 33.4744 10.7016 33.4744C10.9194 33.4744 11.1502 33.5005 11.3941 33.5526C11.6403 33.6023 11.8699 33.6946 12.083 33.8295C12.2984 33.9645 12.4748 34.1574 12.6121 34.4084C12.7494 34.657 12.8181 34.9801 12.8181 35.3778V39H11.7812V38.2543H11.7385C11.6699 38.3916 11.5669 38.5265 11.4296 38.6591C11.2923 38.7917 11.1159 38.9018 10.9005 38.9893C10.685 39.0769 10.427 39.1207 10.1263 39.1207ZM10.3572 38.2685C10.6507 38.2685 10.9017 38.2105 11.11 38.0945C11.3207 37.9785 11.4805 37.8269 11.5894 37.6399C11.7007 37.4505 11.7563 37.2481 11.7563 37.0327V36.3295C11.7184 36.3674 11.645 36.4029 11.5361 36.4361C11.4296 36.4669 11.3077 36.4941 11.1704 36.5178C11.0331 36.5391 10.8993 36.5592 10.7691 36.5781C10.6389 36.5947 10.53 36.6089 10.4424 36.6207C10.2364 36.6468 10.0482 36.6906 9.87775 36.7521C9.70967 36.8137 9.57472 36.9025 9.47292 37.0185C9.37349 37.1321 9.32377 37.2836 9.32377 37.473C9.32377 37.7358 9.42084 37.9347 9.61497 38.0696C9.8091 38.2022 10.0565 38.2685 10.3572 38.2685ZM15.2941 35.7614V39H14.2323V33.5455H15.2515V34.4332H15.319C15.4445 34.1444 15.641 33.9124 15.9085 33.7372C16.1784 33.562 16.5181 33.4744 16.9276 33.4744C17.2993 33.4744 17.6249 33.5526 17.9042 33.7088C18.1836 33.8627 18.4002 34.0923 18.5541 34.3977C18.7079 34.7031 18.7849 35.0807 18.7849 35.5305V39H17.7231V35.6584C17.7231 35.263 17.6201 34.9541 17.4142 34.7315C17.2082 34.5066 16.9253 34.3942 16.5654 34.3942C16.3192 34.3942 16.1002 34.4474 15.9085 34.554C15.7191 34.6605 15.5687 34.8168 15.4575 35.0227C15.3486 35.2263 15.2941 35.4725 15.2941 35.7614ZM22.5065 39.1101C21.9785 39.1101 21.524 38.9905 21.1428 38.7514C20.7641 38.5099 20.4729 38.1773 20.2693 37.7536C20.0657 37.3298 19.9639 36.8445 19.9639 36.2976C19.9639 35.7436 20.068 35.2547 20.2764 34.831C20.4847 34.4048 20.7783 34.0722 21.157 33.8331C21.5358 33.594 21.9821 33.4744 22.4958 33.4744C22.9101 33.4744 23.2794 33.5514 23.6038 33.7053C23.9281 33.8568 24.1897 34.0698 24.3886 34.3445C24.5898 34.6191 24.7094 34.9399 24.7472 35.3068H23.7139C23.657 35.0511 23.5268 34.831 23.3232 34.6463C23.122 34.4616 22.8521 34.3693 22.5136 34.3693C22.2177 34.3693 21.9584 34.4474 21.7359 34.6037C21.5157 34.7576 21.3441 34.9777 21.221 35.2642C21.0979 35.5483 21.0363 35.8845 21.0363 36.2727C21.0363 36.6705 21.0967 37.0137 21.2174 37.3026C21.3382 37.5914 21.5086 37.8151 21.7288 37.9737C21.9513 38.1323 22.2129 38.2116 22.5136 38.2116C22.7148 38.2116 22.8971 38.175 23.0605 38.1016C23.2262 38.0258 23.3647 37.9181 23.4759 37.7784C23.5896 37.6387 23.6689 37.4706 23.7139 37.2741H24.7472C24.7094 37.6269 24.5945 37.9418 24.4028 38.2188C24.211 38.4957 23.9542 38.7135 23.6322 38.8722C23.3126 39.0308 22.9374 39.1101 22.5065 39.1101ZM28.2336 39.1101C27.6962 39.1101 27.2333 38.9953 26.8451 38.7656C26.4592 38.5336 26.1609 38.2081 25.9502 37.7891C25.7419 37.3677 25.6377 36.8741 25.6377 36.3082C25.6377 35.7495 25.7419 35.2571 25.9502 34.831C26.1609 34.4048 26.4545 34.0722 26.8309 33.8331C27.2097 33.594 27.6524 33.4744 28.159 33.4744C28.4668 33.4744 28.7651 33.5253 29.0539 33.6271C29.3427 33.7289 29.6019 33.8887 29.8316 34.1065C30.0612 34.3243 30.2423 34.6072 30.3749 34.9553C30.5075 35.3009 30.5738 35.7211 30.5738 36.2159V36.5923H26.2378V35.7969H29.5333C29.5333 35.5175 29.4765 35.2701 29.3628 35.0547C29.2492 34.8369 29.0894 34.6652 28.8834 34.5398C28.6798 34.4143 28.4407 34.3516 28.1661 34.3516C27.8678 34.3516 27.6074 34.425 27.3849 34.5717C27.1647 34.7161 26.9942 34.9055 26.8735 35.1399C26.7551 35.3719 26.6959 35.6241 26.6959 35.8963V36.5178C26.6959 36.8823 26.7599 37.1925 26.8877 37.4482C27.0179 37.7038 27.199 37.8991 27.431 38.0341C27.663 38.1667 27.9341 38.233 28.2442 38.233C28.4455 38.233 28.6289 38.2045 28.7947 38.1477C28.9604 38.0885 29.1036 38.0009 29.2243 37.8849C29.3451 37.7689 29.4374 37.6257 29.5013 37.4553L30.5063 37.6364C30.4258 37.9323 30.2814 38.1915 30.0731 38.4141C29.8671 38.6342 29.6079 38.8059 29.2954 38.929C28.9852 39.0497 28.6313 39.1101 28.2336 39.1101ZM32.8137 31.7273V39H31.7519V31.7273H32.8137Z" fill="black"/>
<path d="M16.9997 2.33325C10.548 2.33325 5.33301 7.54825 5.33301 13.9999C5.33301 20.4516 10.548 25.6666 16.9997 25.6666C23.4513 25.6666 28.6663 20.4516 28.6663 13.9999C28.6663 7.54825 23.4513 2.33325 16.9997 2.33325ZM16.9997 23.3333C11.8547 23.3333 7.66634 19.1449 7.66634 13.9999C7.66634 8.85492 11.8547 4.66659 16.9997 4.66659C22.1447 4.66659 26.333 8.85492 26.333 13.9999C26.333 19.1449 22.1447 23.3333 16.9997 23.3333ZM21.188 8.16659L16.9997 12.3549L12.8113 8.16659L11.1663 9.81159L15.3547 13.9999L11.1663 18.1883L12.8113 19.8333L16.9997 15.6449L21.188 19.8333L22.833 18.1883L18.6447 13.9999L22.833 9.81159L21.188 8.16659Z" fill="black"/>
</svg>
