<svg width="31" height="43" viewBox="0 0 31 43" fill="none" xmlns="http://www.w3.org/2000/svg">
<path d="M6.25 5.83325V25.6666H23.75V5.83325H6.25Z" stroke="black" stroke-width="2" stroke-linejoin="round"/>
<path d="M12.6663 11.6666V19.2499M17.333 11.6666V19.2499M3.33301 5.83325H26.6663" stroke="black" stroke-width="2" stroke-linecap="round" stroke-linejoin="round"/>
<path d="M10.333 5.83325L12.2516 2.33325H17.7863L19.6663 5.83325H10.333Z" stroke="black" stroke-width="2" stroke-linejoin="round"/>
<path d="M3.16513 41H0.810724V33.7273H3.2397C3.9523 33.7273 4.56428 33.8729 5.07564 34.1641C5.587 34.4529 5.97881 34.8684 6.25107 35.4105C6.52569 35.9503 6.663 36.5978 6.663 37.353C6.663 38.1106 6.5245 38.7616 6.24751 39.3061C5.97289 39.8506 5.57517 40.2696 5.05433 40.5632C4.5335 40.8544 3.90376 41 3.16513 41ZM1.90803 40.0412H3.10476C3.65874 40.0412 4.1192 39.937 4.48615 39.7287C4.8531 39.518 5.12772 39.2138 5.31001 38.8161C5.49231 38.416 5.58345 37.9283 5.58345 37.353C5.58345 36.7824 5.49231 36.2983 5.31001 35.9006C5.13009 35.5028 4.86139 35.201 4.50391 34.995C4.14643 34.7891 3.70253 34.6861 3.17223 34.6861H1.90803V40.0412ZM10.2931 41.1101C9.75574 41.1101 9.29291 40.9953 8.90465 40.7656C8.51876 40.5336 8.22047 40.2081 8.00977 39.7891C7.80143 39.3677 7.69727 38.8741 7.69727 38.3082C7.69727 37.7495 7.80143 37.2571 8.00977 36.831C8.22047 36.4048 8.51403 36.0722 8.89045 35.8331C9.26924 35.594 9.71194 35.4744 10.2186 35.4744C10.5263 35.4744 10.8246 35.5253 11.1135 35.6271C11.4023 35.7289 11.6615 35.8887 11.8912 36.1065C12.1208 36.3243 12.3019 36.6072 12.4345 36.9553C12.5671 37.3009 12.6333 37.7211 12.6333 38.2159V38.5923H8.29741V37.7969H11.5929C11.5929 37.5175 11.536 37.2701 11.4224 37.0547C11.3088 36.8369 11.149 36.6652 10.943 36.5398C10.7394 36.4143 10.5003 36.3516 10.2257 36.3516C9.92738 36.3516 9.66696 36.425 9.44442 36.5717C9.22425 36.7161 9.0538 36.9055 8.93306 37.1399C8.81469 37.3719 8.7555 37.6241 8.7555 37.8963V38.5178C8.7555 38.8823 8.81942 39.1925 8.94727 39.4482C9.07747 39.7038 9.25858 39.8991 9.49059 40.0341C9.7226 40.1667 9.99367 40.233 10.3038 40.233C10.505 40.233 10.6885 40.2045 10.8542 40.1477C11.0199 40.0885 11.1632 40.0009 11.2839 39.8849C11.4047 39.7689 11.497 39.6257 11.5609 39.4553L12.5659 39.6364C12.4854 39.9323 12.341 40.1915 12.1326 40.4141C11.9267 40.6342 11.6674 40.8059 11.3549 40.929C11.0448 41.0497 10.6909 41.1101 10.2931 41.1101ZM14.8732 33.7273V41H13.8114V33.7273H14.8732ZM18.6525 41.1101C18.1151 41.1101 17.6523 40.9953 17.264 40.7656C16.8781 40.5336 16.5798 40.2081 16.3691 39.7891C16.1608 39.3677 16.0566 38.8741 16.0566 38.3082C16.0566 37.7495 16.1608 37.2571 16.3691 36.831C16.5798 36.4048 16.8734 36.0722 17.2498 35.8331C17.6286 35.594 18.0713 35.4744 18.5779 35.4744C18.8857 35.4744 19.184 35.5253 19.4728 35.6271C19.7617 35.7289 20.0209 35.8887 20.2505 36.1065C20.4802 36.3243 20.6613 36.6072 20.7939 36.9553C20.9264 37.3009 20.9927 37.7211 20.9927 38.2159V38.5923H16.6568V37.7969H19.9522C19.9522 37.5175 19.8954 37.2701 19.7818 37.0547C19.6681 36.8369 19.5083 36.6652 19.3024 36.5398C19.0988 36.4143 18.8597 36.3516 18.585 36.3516C18.2868 36.3516 18.0263 36.425 17.8038 36.5717C17.5836 36.7161 17.4132 36.9055 17.2924 37.1399C17.1741 37.3719 17.1149 37.6241 17.1149 37.8963V38.5178C17.1149 38.8823 17.1788 39.1925 17.3066 39.4482C17.4368 39.7038 17.618 39.8991 17.85 40.0341C18.082 40.1667 18.353 40.233 18.6632 40.233C18.8644 40.233 19.0479 40.2045 19.2136 40.1477C19.3793 40.0885 19.5225 40.0009 19.6433 39.8849C19.764 39.7689 19.8564 39.6257 19.9203 39.4553L20.9252 39.6364C20.8448 39.9323 20.7003 40.1915 20.492 40.4141C20.286 40.6342 20.0268 40.8059 19.7143 40.929C19.4042 41.0497 19.0502 41.1101 18.6525 41.1101ZM24.717 35.5455V36.3977H21.7376V35.5455H24.717ZM22.5366 34.2386H23.5984V39.3984C23.5984 39.6044 23.6291 39.7595 23.6907 39.8636C23.7522 39.9654 23.8316 40.0353 23.9286 40.0732C24.0281 40.1087 24.1358 40.1264 24.2518 40.1264C24.337 40.1264 24.4116 40.1205 24.4755 40.1087C24.5394 40.0968 24.5891 40.0874 24.6246 40.0803L24.8164 40.9574C24.7549 40.9811 24.6673 41.0047 24.5536 41.0284C24.44 41.0545 24.2979 41.0687 24.1275 41.071C23.8481 41.0758 23.5877 41.026 23.3462 40.9219C23.1048 40.8177 22.9094 40.6567 22.7603 40.4389C22.6112 40.2211 22.5366 39.9477 22.5366 39.6186V34.2386ZM28.1838 41.1101C27.6464 41.1101 27.1835 40.9953 26.7953 40.7656C26.4094 40.5336 26.1111 40.2081 25.9004 39.7891C25.6921 39.3677 25.5879 38.8741 25.5879 38.3082C25.5879 37.7495 25.6921 37.2571 25.9004 36.831C26.1111 36.4048 26.4047 36.0722 26.7811 35.8331C27.1599 35.594 27.6026 35.4744 28.1092 35.4744C28.417 35.4744 28.7153 35.5253 29.0041 35.6271C29.2929 35.7289 29.5521 35.8887 29.7818 36.1065C30.0114 36.3243 30.1925 36.6072 30.3251 36.9553C30.4577 37.3009 30.524 37.7211 30.524 38.2159V38.5923H26.188V37.7969H29.4835C29.4835 37.5175 29.4267 37.2701 29.313 37.0547C29.1994 36.8369 29.0396 36.6652 28.8336 36.5398C28.63 36.4143 28.3909 36.3516 28.1163 36.3516C27.818 36.3516 27.5576 36.425 27.335 36.5717C27.1149 36.7161 26.9444 36.9055 26.8237 37.1399C26.7053 37.3719 26.6461 37.6241 26.6461 37.8963V38.5178C26.6461 38.8823 26.71 39.1925 26.8379 39.4482C26.9681 39.7038 27.1492 39.8991 27.3812 40.0341C27.6132 40.1667 27.8843 40.233 28.1944 40.233C28.3957 40.233 28.5791 40.2045 28.7449 40.1477C28.9106 40.0885 29.0538 40.0009 29.1745 39.8849C29.2953 39.7689 29.3876 39.6257 29.4515 39.4553L30.4565 39.6364C30.376 39.9323 30.2316 40.1915 30.0233 40.4141C29.8173 40.6342 29.5581 40.8059 29.2456 40.929C28.9354 41.0497 28.5815 41.1101 28.1838 41.1101Z" fill="black"/>
</svg>
