<svg width="45" height="43" viewBox="0 0 45 43" fill="none" xmlns="http://www.w3.org/2000/svg">
<mask id="path-1-inside-1_1208_3150" fill="white">
<path d="M31.9117 6.56475C32.4247 6.74503 32.869 7.08016 33.1833 7.52384C33.4976 7.96752 33.6664 8.49785 33.6663 9.04159V20.7083C33.6663 22.0233 33.1439 23.2845 32.2141 24.2143C31.2842 25.1442 30.023 25.6666 28.708 25.6666H17.0413C16.4976 25.6667 15.9673 25.4979 15.5236 25.1836C15.0799 24.8692 14.7448 24.4249 14.5645 23.9119L17.011 23.9166H28.708C29.5589 23.9166 30.375 23.5786 30.9766 22.9769C31.5783 22.3752 31.9163 21.5592 31.9163 20.7083V9.04159L31.9117 8.98209V6.56475ZM28.12 2.33325C28.8162 2.33325 29.4839 2.60981 29.9762 3.1021C30.4684 3.59438 30.745 4.26206 30.745 4.95825V20.1214C30.745 20.8176 30.4684 21.4853 29.9762 21.9776C29.4839 22.4699 28.8162 22.7464 28.12 22.7464H12.958C12.2618 22.7464 11.5941 22.4699 11.1019 21.9776C10.6096 21.4853 10.333 20.8176 10.333 20.1214V4.95825C10.333 4.26206 10.6096 3.59438 11.1019 3.1021C11.5941 2.60981 12.2618 2.33325 12.958 2.33325H28.1212H28.12ZM28.12 4.08325H12.958C12.7259 4.08325 12.5034 4.17544 12.3393 4.33953C12.1752 4.50363 12.083 4.72619 12.083 4.95825V20.1214C12.083 20.6044 12.475 20.9964 12.958 20.9964H28.1212C28.3532 20.9964 28.5758 20.9042 28.7399 20.7401C28.904 20.576 28.9962 20.3535 28.9962 20.1214V4.95825C28.9962 4.72619 28.904 4.50363 28.7399 4.33953C28.5758 4.17544 28.3532 4.08325 28.1212 4.08325H28.12ZM19.1775 13.2509L23.7147 8.71492C23.871 8.5598 24.0801 8.46934 24.3002 8.46159C24.5203 8.45384 24.7352 8.52937 24.9021 8.67311C25.0689 8.81684 25.1754 9.01821 25.2004 9.23703C25.2253 9.45584 25.1668 9.67601 25.0365 9.85359L24.9513 9.95159L19.7013 15.2016C19.5381 15.3646 19.317 15.4566 19.0863 15.4575C18.8556 15.4584 18.6338 15.3681 18.4693 15.2063L18.383 15.1083L16.633 12.7749C16.4999 12.5983 16.4386 12.3778 16.4615 12.1578C16.4843 11.9378 16.5897 11.7346 16.7563 11.5892C16.9229 11.4437 17.1384 11.3667 17.3595 11.3737C17.5806 11.3807 17.7908 11.4712 17.9478 11.6269L18.033 11.7249L19.1775 13.2509L23.7147 8.71492L19.1763 13.2509H19.1775Z"/>
</mask>
<path d="M31.9117 6.56475C32.4247 6.74503 32.869 7.08016 33.1833 7.52384C33.4976 7.96752 33.6664 8.49785 33.6663 9.04159V20.7083C33.6663 22.0233 33.1439 23.2845 32.2141 24.2143C31.2842 25.1442 30.023 25.6666 28.708 25.6666H17.0413C16.4976 25.6667 15.9673 25.4979 15.5236 25.1836C15.0799 24.8692 14.7448 24.4249 14.5645 23.9119L17.011 23.9166H28.708C29.5589 23.9166 30.375 23.5786 30.9766 22.9769C31.5783 22.3752 31.9163 21.5592 31.9163 20.7083V9.04159L31.9117 8.98209V6.56475ZM28.12 2.33325C28.8162 2.33325 29.4839 2.60981 29.9762 3.1021C30.4684 3.59438 30.745 4.26206 30.745 4.95825V20.1214C30.745 20.8176 30.4684 21.4853 29.9762 21.9776C29.4839 22.4699 28.8162 22.7464 28.12 22.7464H12.958C12.2618 22.7464 11.5941 22.4699 11.1019 21.9776C10.6096 21.4853 10.333 20.8176 10.333 20.1214V4.95825C10.333 4.26206 10.6096 3.59438 11.1019 3.1021C11.5941 2.60981 12.2618 2.33325 12.958 2.33325H28.1212H28.12ZM28.12 4.08325H12.958C12.7259 4.08325 12.5034 4.17544 12.3393 4.33953C12.1752 4.50363 12.083 4.72619 12.083 4.95825V20.1214C12.083 20.6044 12.475 20.9964 12.958 20.9964H28.1212C28.3532 20.9964 28.5758 20.9042 28.7399 20.7401C28.904 20.576 28.9962 20.3535 28.9962 20.1214V4.95825C28.9962 4.72619 28.904 4.50363 28.7399 4.33953C28.5758 4.17544 28.3532 4.08325 28.1212 4.08325H28.12ZM19.1775 13.2509L23.7147 8.71492C23.871 8.5598 24.0801 8.46934 24.3002 8.46159C24.5203 8.45384 24.7352 8.52937 24.9021 8.67311C25.0689 8.81684 25.1754 9.01821 25.2004 9.23703C25.2253 9.45584 25.1668 9.67601 25.0365 9.85359L24.9513 9.95159L19.7013 15.2016C19.5381 15.3646 19.317 15.4566 19.0863 15.4575C18.8556 15.4584 18.6338 15.3681 18.4693 15.2063L18.383 15.1083L16.633 12.7749C16.4999 12.5983 16.4386 12.3778 16.4615 12.1578C16.4843 11.9378 16.5897 11.7346 16.7563 11.5892C16.9229 11.4437 17.1384 11.3667 17.3595 11.3737C17.5806 11.3807 17.7908 11.4712 17.9478 11.6269L18.033 11.7249L19.1775 13.2509L23.7147 8.71492L19.1763 13.2509H19.1775Z" fill="black"/>
<path d="M31.9117 6.56475L32.5748 4.67788L29.9117 3.74197V6.56475H31.9117ZM33.6663 9.04159L31.6663 9.04135V9.04159H33.6663ZM28.708 25.6666V23.6666V25.6666ZM17.0413 25.6666V23.6666L17.0411 23.6666L17.0413 25.6666ZM14.5645 23.9119L14.5683 21.9119L11.7398 21.9065L12.6776 24.575L14.5645 23.9119ZM17.011 23.9166L17.0072 25.9166H17.011V23.9166ZM31.9163 9.04159H33.9163V8.96328L33.9102 8.88521L31.9163 9.04159ZM31.9117 8.98209H29.9117V9.06039L29.9178 9.13846L31.9117 8.98209ZM30.745 20.1214H32.745H30.745ZM10.333 20.1214H8.33301H10.333ZM12.958 2.33325V0.333252V2.33325ZM19.1775 13.2509V15.2509H20.0058L20.5915 14.6653L19.1775 13.2509ZM23.7147 8.71492L22.306 7.29518L22.3006 7.30052L23.7147 8.71492ZM25.0365 9.85359L26.5461 11.1655L26.6003 11.1031L26.6492 11.0365L25.0365 9.85359ZM24.9513 9.95159L26.3656 11.3658L26.415 11.3163L26.4609 11.2635L24.9513 9.95159ZM19.7013 15.2016L21.1147 16.6166L21.1156 16.6158L19.7013 15.2016ZM18.4693 15.2063L16.9686 16.5283L17.0158 16.5819L17.0667 16.632L18.4693 15.2063ZM18.383 15.1083L16.783 16.3083L16.8302 16.3712L16.8823 16.4303L18.383 15.1083ZM16.633 12.7749L18.233 11.5749L18.2302 11.5712L16.633 12.7749ZM17.9478 11.6269L19.4574 10.315L19.4087 10.259L19.356 10.2067L17.9478 11.6269ZM18.033 11.7249L19.633 10.5249L19.5898 10.4673L19.5426 10.413L18.033 11.7249ZM19.1775 13.2509L17.5775 14.4509L18.9609 16.2955L20.5915 14.6653L19.1775 13.2509ZM23.7147 8.71492L25.1287 10.1293L22.3008 7.30034L23.7147 8.71492ZM19.1763 13.2509L17.7625 11.8363L14.3462 15.2509H19.1763V13.2509ZM31.2486 8.45162C31.3707 8.49455 31.4765 8.57434 31.5513 8.67998L34.8153 6.36769C34.2615 5.58597 33.4786 4.99551 32.5748 4.67788L31.2486 8.45162ZM31.5513 8.67998C31.6262 8.78562 31.6664 8.91189 31.6663 9.04135L35.6663 9.04183C35.6665 8.08382 35.3691 7.14942 34.8153 6.36769L31.5513 8.67998ZM31.6663 9.04159V20.7083H35.6663V9.04159H31.6663ZM31.6663 20.7083C31.6663 21.4929 31.3547 22.2453 30.7999 22.8001L33.6283 25.6285C34.9332 24.3236 35.6663 22.5537 35.6663 20.7083H31.6663ZM30.7999 22.8001C30.2451 23.3549 29.4926 23.6666 28.708 23.6666V27.6666C30.5535 27.6666 32.3234 26.9335 33.6283 25.6285L30.7999 22.8001ZM28.708 23.6666H17.0413V27.6666H28.708V23.6666ZM17.0411 23.6666C16.9116 23.6666 16.7854 23.6264 16.6797 23.5516L14.3675 26.8155C15.1492 27.3693 16.0836 27.6667 17.0416 27.6666L17.0411 23.6666ZM16.6797 23.5516C16.5741 23.4767 16.4943 23.3709 16.4514 23.2488L12.6776 24.575C12.9953 25.4789 13.5857 26.2617 14.3675 26.8155L16.6797 23.5516ZM14.5607 25.9119L17.0072 25.9166L17.0148 21.9166L14.5683 21.9119L14.5607 25.9119ZM17.011 25.9166H28.708V21.9166H17.011V25.9166ZM28.708 25.9166C30.0893 25.9166 31.4141 25.3679 32.3909 24.3911L29.5624 21.5627C29.3358 21.7893 29.0285 21.9166 28.708 21.9166V25.9166ZM32.3909 24.3911C33.3676 23.4143 33.9163 22.0896 33.9163 20.7083H29.9163C29.9163 21.0287 29.789 21.3361 29.5624 21.5627L32.3909 24.3911ZM33.9163 20.7083V9.04159H29.9163V20.7083H33.9163ZM33.9102 8.88521L33.9056 8.82571L29.9178 9.13846L29.9225 9.19796L33.9102 8.88521ZM33.9117 8.98209V6.56475H29.9117V8.98209H33.9117ZM28.12 4.33325C28.2858 4.33325 28.4447 4.3991 28.562 4.51631L31.3904 1.68788C30.523 0.820527 29.3466 0.333252 28.12 0.333252V4.33325ZM28.562 4.51631C28.6792 4.63352 28.745 4.79249 28.745 4.95825H32.745C32.745 3.73163 32.2577 2.55524 31.3904 1.68788L28.562 4.51631ZM28.745 4.95825V20.1214H32.745V4.95825H28.745ZM28.745 20.1214C28.745 20.2872 28.6792 20.4461 28.562 20.5634L31.3904 23.3918C32.2577 22.5244 32.745 21.348 32.745 20.1214H28.745ZM28.562 20.5634C28.4447 20.6806 28.2858 20.7464 28.12 20.7464V24.7464C29.3466 24.7464 30.523 24.2591 31.3904 23.3918L28.562 20.5634ZM28.12 20.7464H12.958V24.7464H28.12V20.7464ZM12.958 20.7464C12.7922 20.7464 12.6333 20.6806 12.5161 20.5634L9.68764 23.3918C10.555 24.2591 11.7314 24.7464 12.958 24.7464V20.7464ZM12.5161 20.5634C12.3989 20.4462 12.333 20.2872 12.333 20.1214H8.33301C8.33301 21.348 8.82028 22.5244 9.68764 23.3918L12.5161 20.5634ZM12.333 20.1214V4.95825H8.33301V20.1214H12.333ZM12.333 4.95825C12.333 4.79249 12.3989 4.63352 12.5161 4.51631L9.68764 1.68788C8.82028 2.55524 8.33301 3.73163 8.33301 4.95825H12.333ZM12.5161 4.51631C12.6333 4.3991 12.7922 4.33325 12.958 4.33325V0.333252C11.7314 0.333252 10.555 0.820527 9.68764 1.68788L12.5161 4.51631ZM12.958 4.33325H28.1212V0.333252H12.958V4.33325ZM28.1212 0.333252H28.12V4.33325H28.1212V0.333252ZM28.12 2.08325H12.958V6.08325H28.12V2.08325ZM12.958 2.08325C12.1955 2.08325 11.4642 2.38615 10.9251 2.92532L13.7535 5.75375C13.5425 5.96473 13.2564 6.08325 12.958 6.08325V2.08325ZM10.9251 2.92532C10.3859 3.46449 10.083 4.19576 10.083 4.95825H14.083C14.083 5.25662 13.9645 5.54277 13.7535 5.75375L10.9251 2.92532ZM10.083 4.95825V20.1214H14.083V4.95825H10.083ZM10.083 20.1214C10.083 21.709 11.3704 22.9964 12.958 22.9964V18.9964C13.5796 18.9964 14.083 19.4998 14.083 20.1214H10.083ZM12.958 22.9964H28.1212V18.9964H12.958V22.9964ZM28.1212 22.9964C28.8837 22.9964 29.6149 22.6935 30.1541 22.1544L27.3257 19.3259C27.5367 19.1149 27.8228 18.9964 28.1212 18.9964V22.9964ZM30.1541 22.1544C30.6933 21.6152 30.9962 20.8839 30.9962 20.1214H26.9962C26.9962 19.8231 27.1147 19.5369 27.3257 19.3259L30.1541 22.1544ZM30.9962 20.1214V4.95825H26.9962V20.1214H30.9962ZM30.9962 4.95825C30.9962 4.19576 30.6933 3.46449 30.1541 2.92532L27.3257 5.75375C27.1147 5.54277 26.9962 5.25662 26.9962 4.95825H30.9962ZM30.1541 2.92532C29.6149 2.38615 28.8837 2.08325 28.1212 2.08325V6.08325C27.8228 6.08325 27.5367 5.96473 27.3257 5.75375L30.1541 2.92532ZM28.1212 2.08325H28.12V6.08325H28.1212V2.08325ZM20.5915 14.6653L25.1287 10.1293L22.3006 7.30052L17.7635 11.8365L20.5915 14.6653ZM25.1234 10.1346C24.9224 10.3341 24.6535 10.4504 24.3706 10.4604L24.2298 6.46283C23.5066 6.4883 22.8197 6.78552 22.306 7.29519L25.1234 10.1346ZM24.3706 10.4604C24.0876 10.4703 23.8113 10.3732 23.5967 10.1884L26.2074 7.15781C25.6591 6.68553 24.953 6.43736 24.2298 6.46283L24.3706 10.4604ZM23.5967 10.1884C23.3822 10.0036 23.2452 9.74469 23.2132 9.46336L27.1875 9.01069C27.1056 8.29173 26.7556 7.63008 26.2074 7.15781L23.5967 10.1884ZM23.2132 9.46336C23.1812 9.18203 23.2564 8.89896 23.4239 8.67064L26.6492 11.0365C27.0772 10.4531 27.2694 9.72966 27.1875 9.01069L23.2132 9.46336ZM23.5269 8.54167L23.4417 8.63967L26.4609 11.2635L26.5461 11.1655L23.5269 8.54167ZM23.5371 8.53737L18.2871 13.7874L21.1156 16.6158L26.3656 11.3658L23.5371 8.53737ZM18.288 13.7865C18.4979 13.5769 18.7821 13.4586 19.0787 13.4575L19.0939 17.4575C19.852 17.4546 20.5783 17.1524 21.1147 16.6166L18.288 13.7865ZM19.0787 13.4575C19.3754 13.4564 19.6605 13.5725 19.872 13.7805L17.0667 16.632C17.6072 17.1637 18.3357 17.4604 19.0939 17.4575L19.0787 13.4575ZM19.9701 13.8842L19.8837 13.7862L16.8823 16.4303L16.9686 16.5283L19.9701 13.8842ZM19.983 13.9083L18.233 11.5749L15.033 13.9749L16.783 16.3083L19.983 13.9083ZM18.2302 11.5712C18.4013 11.7983 18.4801 12.0818 18.4507 12.3646L14.4722 11.951C14.397 12.6738 14.5984 13.3983 15.0358 13.9787L18.2302 11.5712ZM18.4507 12.3646C18.4213 12.6475 18.2859 12.9087 18.0717 13.0957L15.4409 10.0826C14.8935 10.5606 14.5473 11.2281 14.4722 11.951L18.4507 12.3646ZM18.0717 13.0957C17.8575 13.2828 17.5804 13.3817 17.2961 13.3727L17.4228 9.37472C16.6965 9.3517 15.9883 9.60462 15.4409 10.0826L18.0717 13.0957ZM17.2961 13.3727C17.0119 13.3637 16.7416 13.2474 16.5397 13.0472L19.356 10.2067C18.8399 9.69499 18.1492 9.39774 17.4228 9.37472L17.2961 13.3727ZM16.4382 12.9388L16.5234 13.0368L19.5426 10.413L19.4574 10.315L16.4382 12.9388ZM16.433 12.9249L17.5775 14.4509L20.7775 12.0509L19.633 10.5249L16.433 12.9249ZM20.5915 14.6653L25.1287 10.1293L22.3006 7.30052L17.7635 11.8365L20.5915 14.6653ZM22.3008 7.30034L17.7625 11.8363L20.5902 14.6655L25.1285 10.1295L22.3008 7.30034ZM19.1763 15.2509H19.1775V11.2509H19.1763V15.2509Z" fill="black" mask="url(#path-1-inside-1_1208_3150)"/>
<path d="M4.92188 35.6378C4.884 35.3016 4.72775 35.0412 4.45312 34.8565C4.1785 34.6695 3.83286 34.576 3.41619 34.576C3.1179 34.576 2.85985 34.6233 2.64205 34.718C2.42424 34.8104 2.25497 34.9382 2.13423 35.1016C2.01586 35.2625 1.95668 35.446 1.95668 35.652C1.95668 35.8248 1.99692 35.974 2.07741 36.0994C2.16027 36.2249 2.26799 36.3303 2.40057 36.4155C2.53551 36.4983 2.67992 36.5682 2.83381 36.625C2.98769 36.6795 3.13565 36.7244 3.2777 36.7599L3.98793 36.9446C4.21993 37.0014 4.45786 37.0784 4.7017 37.1754C4.94555 37.2725 5.17164 37.4003 5.37997 37.5589C5.58831 37.7176 5.75639 37.9141 5.88423 38.1484C6.01444 38.3828 6.07955 38.6634 6.07955 38.9901C6.07955 39.402 5.97301 39.7678 5.75994 40.0874C5.54924 40.407 5.24266 40.6591 4.8402 40.8438C4.4401 41.0284 3.95597 41.1207 3.38778 41.1207C2.84328 41.1207 2.37216 41.0343 1.97443 40.8615C1.5767 40.6887 1.26539 40.4437 1.04048 40.1264C0.815578 39.8068 0.691288 39.428 0.667614 38.9901H1.76847C1.78977 39.2528 1.875 39.4718 2.02415 39.647C2.17566 39.8198 2.36861 39.9489 2.60298 40.0341C2.83973 40.117 3.09896 40.1584 3.38068 40.1584C3.69081 40.1584 3.96662 40.1098 4.2081 40.0128C4.45194 39.9134 4.6437 39.776 4.78338 39.6009C4.92306 39.4233 4.9929 39.2161 4.9929 38.9794C4.9929 38.764 4.93134 38.5876 4.80824 38.4503C4.6875 38.313 4.52296 38.1993 4.31463 38.1094C4.10866 38.0194 3.87547 37.9401 3.61506 37.8714L2.75568 37.6371C2.1733 37.4785 1.71165 37.2453 1.37074 36.9375C1.0322 36.6297 0.862926 36.2225 0.862926 35.7159C0.862926 35.2969 0.976563 34.9311 1.20384 34.6186C1.43111 34.3061 1.73887 34.0634 2.12713 33.8906C2.51539 33.7154 2.95336 33.6278 3.44105 33.6278C3.93348 33.6278 4.3679 33.7143 4.74432 33.8871C5.12311 34.0599 5.4214 34.2978 5.6392 34.6009C5.85701 34.9015 5.97064 35.2472 5.98011 35.6378H4.92188ZM9.65643 41.1101C9.11902 41.1101 8.65619 40.9953 8.26793 40.7656C7.88204 40.5336 7.58375 40.2081 7.37305 39.7891C7.16471 39.3677 7.06055 38.8741 7.06055 38.3082C7.06055 37.7495 7.16471 37.2571 7.37305 36.831C7.58375 36.4048 7.87731 36.0722 8.25373 35.8331C8.63252 35.594 9.07522 35.4744 9.58185 35.4744C9.88962 35.4744 10.1879 35.5253 10.4767 35.6271C10.7656 35.7289 11.0248 35.8887 11.2544 36.1065C11.4841 36.3243 11.6652 36.6072 11.7978 36.9553C11.9303 37.3009 11.9966 37.7211 11.9966 38.2159V38.5923H7.66069V37.7969H10.9561C10.9561 37.5175 10.8993 37.2701 10.7857 37.0547C10.6721 36.8369 10.5123 36.6652 10.3063 36.5398C10.1027 36.4143 9.86358 36.3516 9.58896 36.3516C9.29066 36.3516 9.03024 36.425 8.80771 36.5717C8.58754 36.7161 8.41708 36.9055 8.29634 37.1399C8.17797 37.3719 8.11879 37.6241 8.11879 37.8963V38.5178C8.11879 38.8823 8.18271 39.1925 8.31055 39.4482C8.44076 39.7038 8.62186 39.8991 8.85387 40.0341C9.08588 40.1667 9.35695 40.233 9.66708 40.233C9.86831 40.233 10.0518 40.2045 10.2175 40.1477C10.3832 40.0885 10.5265 40.0009 10.6472 39.8849C10.7679 39.7689 10.8603 39.6257 10.9242 39.4553L11.9292 39.6364C11.8487 39.9323 11.7042 40.1915 11.4959 40.4141C11.29 40.6342 11.0307 40.8059 10.7182 40.929C10.4081 41.0497 10.0542 41.1101 9.65643 41.1101ZM14.2365 33.7273V41H13.1747V33.7273H14.2365ZM18.0158 41.1101C17.4784 41.1101 17.0156 40.9953 16.6273 40.7656C16.2414 40.5336 15.9431 40.2081 15.7324 39.7891C15.5241 39.3677 15.4199 38.8741 15.4199 38.3082C15.4199 37.7495 15.5241 37.2571 15.7324 36.831C15.9431 36.4048 16.2367 36.0722 16.6131 35.8331C16.9919 35.594 17.4346 35.4744 17.9412 35.4744C18.249 35.4744 18.5473 35.5253 18.8361 35.6271C19.1249 35.7289 19.3842 35.8887 19.6138 36.1065C19.8435 36.3243 20.0246 36.6072 20.1571 36.9553C20.2897 37.3009 20.356 37.7211 20.356 38.2159V38.5923H16.0201V37.7969H19.3155C19.3155 37.5175 19.2587 37.2701 19.1451 37.0547C19.0314 36.8369 18.8716 36.6652 18.6657 36.5398C18.4621 36.4143 18.223 36.3516 17.9483 36.3516C17.65 36.3516 17.3896 36.425 17.1671 36.5717C16.9469 36.7161 16.7765 36.9055 16.6557 37.1399C16.5373 37.3719 16.4782 37.6241 16.4782 37.8963V38.5178C16.4782 38.8823 16.5421 39.1925 16.6699 39.4482C16.8001 39.7038 16.9812 39.8991 17.2132 40.0341C17.4453 40.1667 17.7163 40.233 18.0265 40.233C18.2277 40.233 18.4112 40.2045 18.5769 40.1477C18.7426 40.0885 18.8858 40.0009 19.0066 39.8849C19.1273 39.7689 19.2196 39.6257 19.2836 39.4553L20.2885 39.6364C20.208 39.9323 20.0636 40.1915 19.8553 40.4141C19.6493 40.6342 19.3901 40.8059 19.0776 40.929C18.7675 41.0497 18.4135 41.1101 18.0158 41.1101ZM23.8317 41.1101C23.3037 41.1101 22.8492 40.9905 22.468 40.7514C22.0893 40.5099 21.7981 40.1773 21.5945 39.7536C21.3909 39.3298 21.2891 38.8445 21.2891 38.2976C21.2891 37.7436 21.3932 37.2547 21.6016 36.831C21.8099 36.4048 22.1035 36.0722 22.4822 35.8331C22.861 35.594 23.3073 35.4744 23.821 35.4744C24.2353 35.4744 24.6046 35.5514 24.929 35.7053C25.2533 35.8568 25.5149 36.0698 25.7138 36.3445C25.915 36.6191 26.0346 36.9399 26.0724 37.3068H25.0391C24.9822 37.0511 24.852 36.831 24.6484 36.6463C24.4472 36.4616 24.1773 36.3693 23.8388 36.3693C23.5429 36.3693 23.2836 36.4474 23.0611 36.6037C22.8409 36.7576 22.6693 36.9777 22.5462 37.2642C22.4231 37.5483 22.3615 37.8845 22.3615 38.2727C22.3615 38.6705 22.4219 39.0137 22.5426 39.3026C22.6634 39.5914 22.8338 39.8151 23.054 39.9737C23.2765 40.1323 23.5381 40.2116 23.8388 40.2116C24.04 40.2116 24.2223 40.175 24.3857 40.1016C24.5514 40.0258 24.6899 39.9181 24.8011 39.7784C24.9148 39.6387 24.9941 39.4706 25.0391 39.2741H26.0724C26.0346 39.6269 25.9197 39.9418 25.728 40.2188C25.5362 40.4957 25.2794 40.7135 24.9574 40.8722C24.6378 41.0308 24.2625 41.1101 23.8317 41.1101ZM29.7541 35.5455V36.3977H26.7747V35.5455H29.7541ZM27.5737 34.2386H28.6355V39.3984C28.6355 39.6044 28.6663 39.7595 28.7278 39.8636C28.7894 39.9654 28.8687 40.0353 28.9657 40.0732C29.0652 40.1087 29.1729 40.1264 29.2889 40.1264C29.3741 40.1264 29.4487 40.1205 29.5126 40.1087C29.5765 40.0968 29.6262 40.0874 29.6618 40.0803L29.8535 40.9574C29.792 40.9811 29.7044 41.0047 29.5907 41.0284C29.4771 41.0545 29.335 41.0687 29.1646 41.071C28.8852 41.0758 28.6248 41.026 28.3833 40.9219C28.1419 40.8177 27.9466 40.6567 27.7974 40.4389C27.6483 40.2211 27.5737 39.9477 27.5737 39.6186V34.2386ZM34.2747 41H33.1099L35.7271 33.7273H36.9949L39.612 41H38.4473L36.3912 35.0483H36.3343L34.2747 41ZM34.47 38.152H38.2484V39.0753H34.47V38.152ZM41.6388 33.7273V41H40.5771V33.7273H41.6388ZM44.1291 33.7273V41H43.0673V33.7273H44.1291Z" fill="black"/>
</svg>
