<svg width="44" height="44" viewBox="0 0 44 44" fill="none" xmlns="http://www.w3.org/2000/svg">
<circle cx="22" cy="22" r="22" fill="#B9B3F7"/>
<mask id="mask0_3289_5645" style="mask-type:alpha" maskUnits="userSpaceOnUse" x="6" y="6" width="32" height="32">
<circle cx="22" cy="22" r="15.4653" fill="#7367F0"/>
</mask>
<g mask="url(#mask0_3289_5645)">
<path d="M21.7865 21.2472C23.7352 21.2472 25.6039 20.4722 26.9818 19.0927C28.3597 17.7131 29.134 15.8419 29.134 13.891C29.134 11.94 28.3597 10.069 26.9818 8.68919C25.6039 7.30963 23.7352 6.53465 21.7865 6.53465C19.8377 6.53465 17.969 7.30963 16.5911 8.68919C15.2132 10.0689 14.4389 11.9399 14.4389 13.891C14.4413 15.8413 15.216 17.711 16.5934 19.0901C17.9709 20.4692 19.8384 21.245 21.7865 21.2472Z" fill="#7367F0"/>
<path d="M8.61046 37.4653H36.1475C36.1471 33.6522 34.6341 29.9955 31.941 27.2996C29.248 24.6037 25.5958 23.089 21.787 23.0887C17.9786 23.0887 14.3263 24.6033 11.633 27.2994C10.2953 28.6312 9.23456 30.2153 8.51249 31.9603C7.79041 33.7054 7.42123 35.5764 7.4262 37.4653L8.61046 37.4653Z" fill="#7367F0"/>
</g>
</svg>
