<svg width="75" height="113" viewBox="0 0 75 113" fill="none" xmlns="http://www.w3.org/2000/svg">
<g filter="url(#filter0_d_901_4801)">
<path d="M37.5 0C19.0303 0 4 14.4004 4 32.1052C4 57.2617 34.351 103.236 35.6426 104.327C36.1749 104.777 36.8374 105 37.5 105C38.1626 105 38.8251 104.777 39.3574 104.331C40.649 103.236 71 57.2617 71 32.1052C71 14.4004 55.9697 0 37.5 0Z" fill="#518F33"/>
</g>
<circle cx="37.5" cy="33.5" r="28.5" fill="white"/>
<path d="M58.1109 21.0001H15.8813C14.8405 21.0001 14.0024 21.844 14.0024 22.8702V27.3968H60V22.8702C59.9997 21.8441 59.1518 21.0001 58.1115 21.0001H58.1109Z" fill="#518F33"/>
<path d="M15.6653 34.382H58.3319L59.9967 28.8386H14L15.6653 34.382Z" fill="#518F33"/>
<path d="M15.6689 36.7762C15.6689 48.4953 25.217 58.0001 36.9915 58.0001C48.7754 58.0001 58.3235 48.4962 58.3235 36.7762V35.8173H15.6698L15.6689 36.7762ZM36.9949 37.4161C41.8605 37.4161 45.8109 41.3483 45.8109 46.1913C45.8109 51.0343 41.8604 54.9759 36.9949 54.9759C32.1294 54.9759 28.1695 51.0343 28.1695 46.1913C28.1698 41.348 32.1297 37.4161 36.9949 37.4161Z" fill="#518F33"/>
<path d="M36.9931 52.4384C40.459 52.4384 43.2686 49.6418 43.2686 46.1919C43.2686 42.7421 40.459 39.9454 36.9931 39.9454C33.5272 39.9454 30.7175 42.7421 30.7175 46.1919C30.7175 49.6418 33.5272 52.4384 36.9931 52.4384ZM36.9931 41.4386C39.6303 41.4386 41.7682 43.5667 41.7682 46.1917C41.7682 48.8167 39.6303 50.9447 36.9931 50.9447C34.3559 50.9447 32.2179 48.8167 32.2179 46.1917C32.2179 43.5667 34.3559 41.4386 36.9931 41.4386Z" fill="#518F33"/>
<path d="M39.9988 46.1926C39.9988 47.8447 38.6532 49.1836 36.9935 49.1836C35.3338 49.1836 33.9883 47.8447 33.9883 46.1926C33.9883 44.5406 35.3338 43.2013 36.9935 43.2013C38.6532 43.2013 39.9988 44.5406 39.9988 46.1926Z" fill="#518F33"/>
<defs>
<filter id="filter0_d_901_4801" x="0" y="0" width="75" height="113" filterUnits="userSpaceOnUse" color-interpolation-filters="sRGB">
<feFlood flood-opacity="0" result="BackgroundImageFix"/>
<feColorMatrix in="SourceAlpha" type="matrix" values="0 0 0 0 0 0 0 0 0 0 0 0 0 0 0 0 0 0 127 0" result="hardAlpha"/>
<feOffset dy="4"/>
<feGaussianBlur stdDeviation="2"/>
<feColorMatrix type="matrix" values="0 0 0 0 0 0 0 0 0 0 0 0 0 0 0 0 0 0 0.15 0"/>
<feBlend mode="normal" in2="BackgroundImageFix" result="effect1_dropShadow_901_4801"/>
<feBlend mode="normal" in="SourceGraphic" in2="effect1_dropShadow_901_4801" result="shape"/>
</filter>
</defs>
</svg>
