<svg width="75" height="113" viewBox="0 0 75 113" fill="none" xmlns="http://www.w3.org/2000/svg">
<g filter="url(#filter0_d_901_4799)">
<path d="M37.5 0C19.0303 0 4 14.4004 4 32.1052C4 57.2617 34.351 103.236 35.6426 104.327C36.1749 104.777 36.8374 105 37.5 105C38.1626 105 38.8251 104.777 39.3574 104.331C40.649 103.236 71 57.2617 71 32.1052C71 14.4004 55.9697 0 37.5 0Z" fill="#FEA554"/>
</g>
<circle cx="37.5" cy="33.5" r="28.5" fill="white"/>
<path d="M56.722 33.395C56.722 22.6856 48.0332 14 37.4033 14C26.6892 14 18 22.6853 18 33.3946C18 36.7677 18.8436 40.0564 20.5308 42.9234L18.4502 50.0003C18.1125 50.928 19.0407 51.8555 19.9686 51.6025L28.2079 50.4283C30.9918 51.9461 34.1975 52.7051 37.4033 52.7051C48.0325 52.7051 56.722 44.0201 56.722 33.395Z" fill="#FEA554"/>
<path d="M39.6472 24.7178C39.7407 23.7986 39.0192 23 38.0952 23H35.5602C34.6362 23 33.9147 23.7986 34.0082 24.7178L35.251 36.9452C35.332 37.7416 36.0026 38.3475 36.8031 38.3475H36.8523C37.6528 38.3475 38.3234 37.7416 38.4044 36.9452L39.6472 24.7178Z" fill="white"/>
<path d="M36.8277 40.2871C36.0359 40.2871 35.3936 40.929 35.3936 41.7207C35.3936 42.5125 36.0359 43.1544 36.8277 43.1544C37.6195 43.1544 38.2618 42.5125 38.2618 41.7207C38.2618 40.929 37.6195 40.2871 36.8277 40.2871Z" fill="white"/>
<defs>
<filter id="filter0_d_901_4799" x="0" y="0" width="75" height="113" filterUnits="userSpaceOnUse" color-interpolation-filters="sRGB">
<feFlood flood-opacity="0" result="BackgroundImageFix"/>
<feColorMatrix in="SourceAlpha" type="matrix" values="0 0 0 0 0 0 0 0 0 0 0 0 0 0 0 0 0 0 127 0" result="hardAlpha"/>
<feOffset dy="4"/>
<feGaussianBlur stdDeviation="2"/>
<feColorMatrix type="matrix" values="0 0 0 0 0 0 0 0 0 0 0 0 0 0 0 0 0 0 0.15 0"/>
<feBlend mode="normal" in2="BackgroundImageFix" result="effect1_dropShadow_901_4799"/>
<feBlend mode="normal" in="SourceGraphic" in2="effect1_dropShadow_901_4799" result="shape"/>
</filter>
</defs>
</svg>
