<svg width="75" height="113" viewBox="0 0 75 113" fill="none" xmlns="http://www.w3.org/2000/svg">
<g filter="url(#filter0_d_901_4800)">
<path d="M37.5 0C19.0303 0 4 14.4004 4 32.1052C4 57.2617 34.351 103.236 35.6426 104.327C36.1749 104.777 36.8374 105 37.5 105C38.1626 105 38.8251 104.777 39.3574 104.331C40.649 103.236 71 57.2617 71 32.1052C71 14.4004 55.9697 0 37.5 0Z" fill="#438ED3"/>
</g>
<circle cx="37.5" cy="33.5" r="28.5" fill="white"/>
<path fill-rule="evenodd" clip-rule="evenodd" d="M48.4963 18.2643C51.8401 18.2643 53.892 23.0515 55.2601 25.6354L57.0079 24.4955C57.9198 23.9636 59.0598 24.1915 59.6678 25.1035C60.3517 25.7115 59.8958 27.1552 59.0598 27.6871L57.2359 28.827C58.0719 29.6629 59.2878 31.3346 59.2878 35.0581C59.3638 39.1615 59.3638 43.2646 59.3638 47.3679C59.3638 48.1277 58.7558 48.7357 57.9958 48.7357H51.9163C51.1563 48.7357 50.5483 48.1277 50.5483 47.3679V45.6962H24.4058V47.3679C24.4058 48.1277 23.7977 48.7357 23.0378 48.7357H16.9582C16.1983 48.7357 15.5902 48.1277 15.5902 47.3679V35.0581C15.6663 31.3348 16.8822 29.6629 17.6421 28.827L15.8182 27.6871C14.9822 27.1552 14.7542 25.9394 15.2862 25.1035C16.0461 24.3436 16.8061 23.8116 17.8701 24.4955L19.694 25.6354C21.062 23.0518 23.1139 18.2643 26.4578 18.2643H48.4963ZM42.1888 42.6564C42.5689 42.6564 42.8727 42.4284 42.8727 42.0484V39.7687C42.8727 39.4647 42.5686 39.1607 42.1888 39.1607H32.7655C32.3854 39.1607 32.0816 39.4647 32.0816 39.7687V42.0484C32.0816 42.4284 32.3856 42.6564 32.7655 42.6564H42.1888ZM52.524 25.9387C51.688 24.3429 50.9281 22.6713 50.0923 21.0755H24.8618C24.0258 22.6713 23.19 24.3429 22.4301 25.9387C32.309 27.6104 42.6449 27.6104 52.5239 25.9387H52.524ZM18.4024 35.8168C21.2142 36.3487 23.9499 36.7285 26.6097 37.3365C27.2936 37.6405 27.7497 38.2482 28.1295 38.9323C28.2814 39.2363 28.2814 39.6921 28.2056 40.148C25.5457 39.768 22.9621 39.3121 20.3781 38.8562C19.5421 38.5522 18.8583 37.9444 18.4024 37.1085C18.3263 36.5005 18.3263 36.0446 18.4024 35.8167L18.4024 35.8168ZM56.476 35.8168C53.7403 36.3487 51.0042 36.7285 48.2687 37.3365C47.6607 37.6405 47.1287 38.2482 46.7488 38.9323C46.6728 39.2363 46.6728 39.6921 46.7488 40.148C49.3327 39.768 51.9924 39.3121 54.5763 38.8562C55.4123 38.5522 56.0962 37.9444 56.5521 37.1085C56.6282 36.5005 56.6282 36.0446 56.476 35.8167L56.476 35.8168Z" fill="#438ED3"/>
<defs>
<filter id="filter0_d_901_4800" x="0" y="0" width="75" height="113" filterUnits="userSpaceOnUse" color-interpolation-filters="sRGB">
<feFlood flood-opacity="0" result="BackgroundImageFix"/>
<feColorMatrix in="SourceAlpha" type="matrix" values="0 0 0 0 0 0 0 0 0 0 0 0 0 0 0 0 0 0 127 0" result="hardAlpha"/>
<feOffset dy="4"/>
<feGaussianBlur stdDeviation="2"/>
<feColorMatrix type="matrix" values="0 0 0 0 0 0 0 0 0 0 0 0 0 0 0 0 0 0 0.15 0"/>
<feBlend mode="normal" in2="BackgroundImageFix" result="effect1_dropShadow_901_4800"/>
<feBlend mode="normal" in="SourceGraphic" in2="effect1_dropShadow_901_4800" result="shape"/>
</filter>
</defs>
</svg>
